<svg id="SvgjsSvg1288" width="1074.5" height="1438" xmlns="http://www.w3.org/2000/svg" version="1.1" xmlns:xlink="http://www.w3.org/1999/xlink" xmlns:svgjs="http://svgjs.com/svgjs"><defs id="SvgjsDefs1289"><pattern id="SvgjsPattern1292" x="0" y="0" width="838" height="1388" patternUnits="userSpaceOnUse"><image id="SvgjsImage1293" xlink:href="https://cdn.processon.com/619b9cdd1efad474fb9e274a?e=1637591789&amp;token=trhI0BY8QfVrIGn9nENop6JAc6l5nZuxhjQ62UfM:6DN8yqHm0LGzogD-tfQrVK0NwF8=" width="838" height="1388" preserveAspectRatio="none" crossOrigin="anonymous" x="0" y="0"></image></pattern></defs><g id="SvgjsG1290" transform="translate(25,25)"><path id="SvgjsPath1291" d="M 0 0L 838 0L 838 1388L 0 1388Z" stroke="none" fill="url(#SvgjsPattern1292)"></path></g><g id="SvgjsG1294" transform="translate(711.5,94)"><path id="SvgjsPath1295" d="M 0 170Q 9 170 9 161L 9 94Q 9 85 22 85Q 9 85 9 76L 9 9Q 9 0 0 0" stroke="rgba(50,50,50,1)" stroke-width="2" fill="none"></path><path id="SvgjsPath1296" d="M 0 0L 135 0L 135 170L 0 170Z" stroke="none" fill="none"></path><g id="SvgjsG1297"><text id="SvgjsText1298" font-family="微软雅黑" text-anchor="start" font-size="16px" width="108px" fill="#323232" font-weight="400" align="middle" lineHeight="125%" anchor="start" family="微软雅黑" size="16px" weight="400" font-style="" opacity="1" y="23" transform="rotate(0)"><tspan id="SvgjsTspan1299" dy="20" x="27"><tspan id="SvgjsTspan1300" style="text-decoration:;font-weight: bold;fill: rgb(0, 0, 0);">完成：</tspan></tspan><tspan id="SvgjsTspan1301" dy="20" x="27"><tspan id="SvgjsTspan1302" style="text-decoration:;">initProps、</tspan></tspan><tspan id="SvgjsTspan1303" dy="20" x="27"><tspan id="SvgjsTspan1304" style="text-decoration:;">initSlots、</tspan></tspan><tspan id="SvgjsTspan1305" dy="20" x="27"><tspan id="SvgjsTspan1306" style="text-decoration:;">initEvents、</tspan></tspan><tspan id="SvgjsTspan1307" dy="20" x="27"><tspan id="SvgjsTspan1308" style="text-decoration:;">initLifeCycle</tspan></tspan><tspan id="SvgjsTspan1309" dy="20" x="27"><tspan id="SvgjsTspan1310" style="text-decoration:;"> </tspan></tspan></text></g></g><g id="SvgjsG1311" transform="translate(711.5,313)"><path id="SvgjsPath1312" d="M 0 83Q 9 83 9 74.7L 9 49.8Q 9 41.5 22 41.5Q 9 41.5 9 33.2L 9 8.3Q 9 0 0 0" stroke="rgba(50,50,50,1)" stroke-width="2" fill="none"></path><path id="SvgjsPath1313" d="M 0 0L 117 0L 117 83L 0 83Z" stroke="none" fill="none"></path><g id="SvgjsG1314"><text id="SvgjsText1315" font-family="微软雅黑" text-anchor="start" font-size="16px" width="90px" fill="#323232" font-weight="400" align="middle" lineHeight="125%" anchor="start" family="微软雅黑" size="16px" weight="400" font-style="" opacity="1" y="9.5" transform="rotate(0)"><tspan id="SvgjsTspan1316" dy="20" x="27"><tspan id="SvgjsTspan1317" style="text-decoration:;font-weight: bold;">完成：</tspan></tspan><tspan id="SvgjsTspan1318" dy="20" x="27"><tspan id="SvgjsTspan1319" style="text-decoration:;">inject、</tspan></tspan><tspan id="SvgjsTspan1320" dy="20" x="27"><tspan id="SvgjsTspan1321" style="text-decoration:;">reactivity</tspan></tspan></text></g></g><g id="SvgjsG1322" transform="translate(711.5,479)"><path id="SvgjsPath1323" d="M 0 177Q 9 177 9 168L 9 97.5Q 9 88.5 22 88.5Q 9 88.5 9 79.5L 9 9Q 9 0 0 0" stroke="rgba(50,50,50,1)" stroke-width="2" fill="none"></path><path id="SvgjsPath1324" d="M 0 0L 210 0L 210 177L 0 177Z" stroke="none" fill="none"></path><g id="SvgjsG1325"><text id="SvgjsText1326" font-family="微软雅黑" text-anchor="start" font-size="16px" width="183px" fill="#323232" font-weight="400" align="middle" lineHeight="125%" anchor="start" family="微软雅黑" size="16px" weight="400" font-style="" opacity="1" y="46.5" transform="rotate(0)"><tspan id="SvgjsTspan1327" dy="20" x="27"><tspan id="SvgjsTspan1328" style="text-decoration:;font-weight: bold;">完成模板编译三阶段：</tspan></tspan><tspan id="SvgjsTspan1329" dy="20" x="27"><tspan id="SvgjsTspan1330" style="text-decoration:;">baseParse(解析)、</tspan></tspan><tspan id="SvgjsTspan1331" dy="20" x="27"><tspan id="SvgjsTspan1332" style="text-decoration:;">transform(转换)、</tspan></tspan><tspan id="SvgjsTspan1333" dy="20" x="27"><tspan id="SvgjsTspan1334" style="text-decoration:;">generate(生成)</tspan></tspan></text></g></g><g id="SvgjsG1335" transform="translate(543.5,718)"><path id="SvgjsPath1336" d="M 0 77Q 9 77 9 69.3L 9 46.2Q 9 38.5 22 38.5Q 9 38.5 9 30.8L 9 7.7Q 9 0 0 0" stroke="rgba(50,50,50,1)" stroke-width="2" fill="none"></path><path id="SvgjsPath1337" d="M 0 0L 276 0L 276 77L 0 77Z" stroke="none" fill="none"></path><g id="SvgjsG1338"><text id="SvgjsText1339" font-family="微软雅黑" text-anchor="start" font-size="16px" width="249px" fill="#323232" font-weight="400" align="middle" lineHeight="125%" anchor="start" family="微软雅黑" size="16px" weight="400" font-style="" opacity="1" y="6.5" transform="rotate(0)"><tspan id="SvgjsTspan1340" dy="20" x="27"><tspan id="SvgjsTspan1341" style="text-decoration:;">完成实例挂载，</tspan></tspan><tspan id="SvgjsTspan1342" dy="20" x="27"><tspan id="SvgjsTspan1343" style="text-decoration:;">虚拟DOM替换$el元素</tspan></tspan><tspan id="SvgjsTspan1344" dy="20" x="27"><tspan id="SvgjsTspan1345" style="text-decoration:;"> </tspan></tspan></text></g></g><g id="SvgjsG1346" transform="translate(833.5,780)"><path id="SvgjsPath1347" d="M 0 292Q 9 292 9 283L 9 155Q 9 146 22 146Q 9 146 9 137L 9 9Q 9 0 0 0" stroke="rgba(50,50,50,1)" stroke-width="2" fill="none"></path><path id="SvgjsPath1348" d="M 0 0L 216 0L 216 292L 0 292Z" stroke="none" fill="none"></path><g id="SvgjsG1349"><text id="SvgjsText1350" font-family="微软雅黑" text-anchor="start" font-size="16px" width="189px" fill="#323232" font-weight="400" align="middle" lineHeight="125%" anchor="start" family="微软雅黑" size="16px" weight="400" font-style="" opacity="1" y="64" transform="rotate(0)"><tspan id="SvgjsTspan1351" dy="20" x="27"><tspan id="SvgjsTspan1352" style="text-decoration:;fill: rgb(244, 67, 54);font-weight: bold;">beforeUpdate：</tspan></tspan><tspan id="SvgjsTspan1353" dy="20" x="27"><tspan id="SvgjsTspan1354" style="text-decoration:;">数据发生改变后，</tspan></tspan><tspan id="SvgjsTspan1355" dy="20" x="27"><tspan id="SvgjsTspan1356" style="text-decoration:;">DOM被更新之前被调用</tspan></tspan><tspan id="SvgjsTspan1357" dy="20" x="27"><tspan id="SvgjsTspan1358" style="text-decoration:;"> </tspan></tspan><tspan id="SvgjsTspan1359" dy="20" x="27"><tspan id="SvgjsTspan1360" style="text-decoration:;fill: rgb(244, 67, 54);font-weight: bold;">updated：</tspan></tspan><tspan id="SvgjsTspan1361" dy="20" x="27"><tspan id="SvgjsTspan1362" style="text-decoration:;">虚拟DOM重新渲染 &amp; 更</tspan></tspan><tspan id="SvgjsTspan1363" dy="20" x="27"><tspan id="SvgjsTspan1364" style="text-decoration:;">新完毕之后被调用</tspan></tspan><tspan id="SvgjsTspan1365" dy="20" x="27"><tspan id="SvgjsTspan1366" style="text-decoration:;"> </tspan></tspan></text></g></g><g id="SvgjsG1367" transform="translate(543.5,1152)"><path id="SvgjsPath1368" d="M 0 97Q 9 97 9 88L 9 57.5Q 9 48.5 22 48.5Q 9 48.5 9 39.5L 9 9Q 9 0 0 0" stroke="rgba(50,50,50,1)" stroke-width="2" fill="none"></path><path id="SvgjsPath1369" d="M 0 0L 172 0L 172 97L 0 97Z" stroke="none" fill="none"></path><g id="SvgjsG1370"><text id="SvgjsText1371" font-family="微软雅黑" text-anchor="start" font-size="16px" width="145px" fill="#323232" font-weight="400" align="middle" lineHeight="125%" anchor="start" family="微软雅黑" size="16px" weight="400" font-style="" opacity="1" y="-3.5" transform="rotate(0)"><tspan id="SvgjsTspan1372" dy="20" x="27"><tspan id="SvgjsTspan1373" style="text-decoration:;fill: rgb(244, 67, 54);font-weight: bold;">卸载阶段：</tspan></tspan><tspan id="SvgjsTspan1374" dy="20" x="27"><tspan id="SvgjsTspan1375" style="text-decoration:;">解除指令、</tspan></tspan><tspan id="SvgjsTspan1376" dy="20" x="27"><tspan id="SvgjsTspan1377" style="text-decoration:;">移除事件侦听器</tspan></tspan><tspan id="SvgjsTspan1378" dy="20" x="27"><tspan id="SvgjsTspan1379" style="text-decoration:;">清空依赖、</tspan></tspan><tspan id="SvgjsTspan1380" dy="20" x="27"><tspan id="SvgjsTspan1381" style="text-decoration:;">卸载子组件实例</tspan></tspan></text></g></g></svg>