<svg id="SvgjsSvg1688" width="913.5" height="496.578125" xmlns="http://www.w3.org/2000/svg" version="1.1" xmlns:xlink="http://www.w3.org/1999/xlink" xmlns:svgjs="http://svgjs.com/svgjs"><defs id="SvgjsDefs1689"><marker id="SvgjsMarker1762" markerWidth="12" markerHeight="8" refX="9" refY="4" viewBox="0 0 12 8" orient="auto" markerUnits="userSpaceOnUse" stroke-dasharray="0,0"><path id="SvgjsPath1763" d="M0,0 L12,4 L0,8 L0,0" fill="#323232" stroke="#323232" stroke-width="1"></path></marker><marker id="SvgjsMarker1766" markerWidth="12" markerHeight="8" refX="9" refY="4" viewBox="0 0 12 8" orient="auto" markerUnits="userSpaceOnUse" stroke-dasharray="0,0"><path id="SvgjsPath1767" d="M0,0 L12,4 L0,8 L0,0" fill="#323232" stroke="#323232" stroke-width="1"></path></marker><marker id="SvgjsMarker1770" markerWidth="12" markerHeight="8" refX="9" refY="4" viewBox="0 0 12 8" orient="auto" markerUnits="userSpaceOnUse" stroke-dasharray="0,0"><path id="SvgjsPath1771" d="M0,0 L12,4 L0,8 L0,0" fill="#323232" stroke="#323232" stroke-width="1"></path></marker><marker id="SvgjsMarker1774" markerWidth="12" markerHeight="8" refX="9" refY="4" viewBox="0 0 12 8" orient="auto" markerUnits="userSpaceOnUse" stroke-dasharray="0,0"><path id="SvgjsPath1775" d="M0,0 L12,4 L0,8 L0,0" fill="#323232" stroke="#323232" stroke-width="1"></path></marker><marker id="SvgjsMarker1778" markerWidth="12" markerHeight="8" refX="9" refY="4" viewBox="0 0 12 8" orient="auto" markerUnits="userSpaceOnUse" stroke-dasharray="0,0"><path id="SvgjsPath1779" d="M0,0 L12,4 L0,8 L0,0" fill="#323232" stroke="#323232" stroke-width="1"></path></marker><marker id="SvgjsMarker1782" markerWidth="12" markerHeight="8" refX="9" refY="4" viewBox="0 0 12 8" orient="auto" markerUnits="userSpaceOnUse" stroke-dasharray="0,0"><path id="SvgjsPath1783" d="M0,0 L12,4 L0,8 L0,0" fill="#323232" stroke="#323232" stroke-width="1"></path></marker><marker id="SvgjsMarker1786" markerWidth="12" markerHeight="8" refX="9" refY="4" viewBox="0 0 12 8" orient="auto" markerUnits="userSpaceOnUse" stroke-dasharray="0,0"><path id="SvgjsPath1787" d="M0,0 L12,4 L0,8 L0,0" fill="#323232" stroke="#323232" stroke-width="1"></path></marker><marker id="SvgjsMarker1790" markerWidth="12" markerHeight="8" refX="9" refY="4" viewBox="0 0 12 8" orient="auto" markerUnits="userSpaceOnUse" stroke-dasharray="0,0"><path id="SvgjsPath1791" d="M0,0 L12,4 L0,8 L0,0" fill="#323232" stroke="#323232" stroke-width="1"></path></marker><marker id="SvgjsMarker1794" markerWidth="12" markerHeight="8" refX="9" refY="4" viewBox="0 0 12 8" orient="auto" markerUnits="userSpaceOnUse" stroke-dasharray="0,0"><path id="SvgjsPath1795" d="M0,0 L12,4 L0,8 L0,0" fill="#323232" stroke="#323232" stroke-width="1"></path></marker><marker id="SvgjsMarker1798" markerWidth="12" markerHeight="8" refX="9" refY="4" viewBox="0 0 12 8" orient="auto" markerUnits="userSpaceOnUse" stroke-dasharray="0,0"><path id="SvgjsPath1799" d="M0,0 L12,4 L0,8 L0,0" fill="#323232" stroke="#323232" stroke-width="1"></path></marker><marker id="SvgjsMarker1802" markerWidth="12" markerHeight="8" refX="9" refY="4" viewBox="0 0 12 8" orient="auto" markerUnits="userSpaceOnUse" stroke-dasharray="0,0"><path id="SvgjsPath1803" d="M0,0 L12,4 L0,8 L0,0" fill="#323232" stroke="#323232" stroke-width="1"></path></marker></defs><g id="SvgjsG1690" transform="translate(437.921875,28.578125)"><path id="SvgjsPath1691" d="M 0 4Q 0 0 4 0L 168 0Q 172 0 172 4L 172 42Q 172 46 168 46L 4 46Q 0 46 0 42Z" stroke="none" fill-opacity="1" fill="#e57373"></path><g id="SvgjsG1692"><text id="SvgjsText1693" font-family="微软雅黑" text-anchor="middle" font-size="14px" width="152px" fill="#323232" font-weight="400" align="middle" lineHeight="125%" anchor="middle" family="微软雅黑" size="14px" weight="400" font-style="" opacity="1" y="12.25" transform="rotate(0)"><tspan id="SvgjsTspan1694" dy="17" x="86"><tspan id="SvgjsTspan1695" style="text-decoration:;">vModelDynamic</tspan></tspan></text></g></g><g id="SvgjsG1696" transform="translate(435.9218750000001,131.75994318181822)"><path id="SvgjsPath1697" d="M 0 4Q 0 0 4 0L 172 0Q 176 0 176 4L 176 42Q 176 46 172 46L 4 46Q 0 46 0 42Z" stroke="none" fill-opacity="1" fill="#ffb74d"></path><g id="SvgjsG1698"><text id="SvgjsText1699" font-family="微软雅黑" text-anchor="middle" font-size="14px" width="156px" fill="#323232" font-weight="400" align="middle" lineHeight="125%" anchor="middle" family="微软雅黑" size="14px" weight="400" font-style="" opacity="1" y="12.25" transform="rotate(0)"><tspan id="SvgjsTspan1700" dy="17" x="88"><tspan id="SvgjsTspan1701" style="text-decoration:;">callModelHook</tspan></tspan></text></g></g><g id="SvgjsG1702" transform="translate(157.421875,284.578125)"><path id="SvgjsPath1703" d="M 0 38C 0 -12.666666666666666 75 -12.666666666666666 75 38C 75 88.66666666666667 0 88.66666666666667 0 38Z" stroke="none" fill-opacity="1" fill="#fff176"></path><g id="SvgjsG1704"><text id="SvgjsText1705" font-family="微软雅黑" text-anchor="middle" font-size="14px" width="55px" fill="#323232" font-weight="400" align="middle" lineHeight="125%" anchor="middle" family="微软雅黑" size="14px" weight="400" font-style="" opacity="1" y="27.25" transform="rotate(0)"><tspan id="SvgjsTspan1706" dy="17" x="37.5"><tspan id="SvgjsTspan1707" style="text-decoration:;">SELECT</tspan></tspan></text></g></g><g id="SvgjsG1708" transform="translate(649.4673295454546,284.578125)"><path id="SvgjsPath1709" d="M 0 38C 0 -12.666666666666666 75 -12.666666666666666 75 38C 75 88.66666666666667 0 88.66666666666667 0 38Z" stroke="none" fill-opacity="1" fill="#fff176"></path><g id="SvgjsG1710"><text id="SvgjsText1711" font-family="微软雅黑" text-anchor="middle" font-size="14px" width="55px" fill="#323232" font-weight="400" align="middle" lineHeight="125%" anchor="middle" family="微软雅黑" size="14px" weight="400" font-style="" opacity="1" y="18.75" transform="rotate(0)"><tspan id="SvgjsTspan1712" dy="17" x="37.5"><tspan id="SvgjsTspan1713" style="text-decoration:;">TEXTAR</tspan></tspan><tspan id="SvgjsTspan1714" dy="17" x="37.5"><tspan id="SvgjsTspan1715" style="text-decoration:;">EA</tspan></tspan></text></g></g><g id="SvgjsG1716" transform="translate(323.421875,284.578125)"><path id="SvgjsPath1717" d="M 0 38C 0 -12.666666666666666 75 -12.666666666666666 75 38C 75 88.66666666666667 0 88.66666666666667 0 38Z" stroke="none" fill-opacity="1" fill="#fff176"></path><g id="SvgjsG1718"><text id="SvgjsText1719" font-family="微软雅黑" text-anchor="middle" font-size="14px" width="55px" fill="#323232" font-weight="400" align="middle" lineHeight="125%" anchor="middle" family="微软雅黑" size="14px" weight="400" font-style="" opacity="1" y="18.75" transform="rotate(0)"><tspan id="SvgjsTspan1720" dy="17" x="37.5"><tspan id="SvgjsTspan1721" style="text-decoration:;">CHECK</tspan></tspan><tspan id="SvgjsTspan1722" dy="17" x="37.5"><tspan id="SvgjsTspan1723" style="text-decoration:;">BOX</tspan></tspan></text></g></g><g id="SvgjsG1724" transform="translate(486.421875,284.578125)"><path id="SvgjsPath1725" d="M 0 38C 0 -12.666666666666666 75 -12.666666666666666 75 38C 75 88.66666666666667 0 88.66666666666667 0 38Z" stroke="none" fill-opacity="1" fill="#fff176"></path><g id="SvgjsG1726"><text id="SvgjsText1727" font-family="微软雅黑" text-anchor="middle" font-size="14px" width="55px" fill="#323232" font-weight="400" align="middle" lineHeight="125%" anchor="middle" family="微软雅黑" size="14px" weight="400" font-style="" opacity="1" y="27.25" transform="rotate(0)"><tspan id="SvgjsTspan1728" dy="17" x="37.5"><tspan id="SvgjsTspan1729" style="text-decoration:;">RADIO</tspan></tspan></text></g></g><g id="SvgjsG1730" transform="translate(813.5127840909093,284.578125)"><path id="SvgjsPath1731" d="M 0 38C 0 -12.666666666666666 75 -12.666666666666666 75 38C 75 88.66666666666667 0 88.66666666666667 0 38Z" stroke="none" fill-opacity="1" fill="#fff176"></path><g id="SvgjsG1732"><text id="SvgjsText1733" font-family="微软雅黑" text-anchor="middle" font-size="14px" width="55px" fill="#323232" font-weight="400" align="middle" lineHeight="125%" anchor="middle" family="微软雅黑" size="14px" weight="400" font-style="" opacity="1" y="27.25" transform="rotate(0)"><tspan id="SvgjsTspan1734" dy="17" x="37.5"><tspan id="SvgjsTspan1735" style="text-decoration:;">TEXT</tspan></tspan></text></g></g><g id="SvgjsG1736" transform="translate(706.421875,432.578125)"><path id="SvgjsPath1737" d="M 0 4Q 0 0 4 0L 114 0Q 118 0 118 4L 118 34Q 118 38 114 38L 4 38Q 0 38 0 34Z" stroke="none" fill-opacity="1" fill="#81c784"></path><g id="SvgjsG1738"><text id="SvgjsText1739" font-family="微软雅黑" text-anchor="middle" font-size="14px" width="98px" fill="#323232" font-weight="400" align="middle" lineHeight="125%" anchor="middle" family="微软雅黑" size="14px" weight="400" font-style="" opacity="1" y="8.25" transform="rotate(0)"><tspan id="SvgjsTspan1740" dy="17" x="59"><tspan id="SvgjsTspan1741" style="text-decoration:;">vModelText</tspan></tspan></text></g></g><g id="SvgjsG1742" transform="translate(135.921875,432.578125)"><path id="SvgjsPath1743" d="M 0 4Q 0 0 4 0L 114 0Q 118 0 118 4L 118 34Q 118 38 114 38L 4 38Q 0 38 0 34Z" stroke="none" fill-opacity="1" fill="#81c784"></path><g id="SvgjsG1744"><text id="SvgjsText1745" font-family="微软雅黑" text-anchor="middle" font-size="14px" width="98px" fill="#323232" font-weight="400" align="middle" lineHeight="125%" anchor="middle" family="微软雅黑" size="14px" weight="400" font-style="" opacity="1" y="8.25" transform="rotate(0)"><tspan id="SvgjsTspan1746" dy="17" x="59"><tspan id="SvgjsTspan1747" style="text-decoration:;">vModelSelect</tspan></tspan></text></g></g><g id="SvgjsG1748" transform="translate(301.921875,432.578125)"><path id="SvgjsPath1749" d="M 0 4Q 0 0 4 0L 114 0Q 118 0 118 4L 118 34Q 118 38 114 38L 4 38Q 0 38 0 34Z" stroke="none" fill-opacity="1" fill="#81c784"></path><g id="SvgjsG1750"><text id="SvgjsText1751" font-family="微软雅黑" text-anchor="middle" font-size="14px" width="98px" fill="#323232" font-weight="400" align="middle" lineHeight="125%" anchor="middle" family="微软雅黑" size="14px" weight="400" font-style="" opacity="1" y="8.25" transform="rotate(0)"><tspan id="SvgjsTspan1752" dy="17" x="59"><tspan id="SvgjsTspan1753" style="text-decoration:;">vModelRadio</tspan></tspan></text></g></g><g id="SvgjsG1754" transform="translate(441.921875,432.578125)"><path id="SvgjsPath1755" d="M 0 4Q 0 0 4 0L 160 0Q 164 0 164 4L 164 34Q 164 38 160 38L 4 38Q 0 38 0 34Z" stroke="none" fill-opacity="1" fill="#81c784"></path><g id="SvgjsG1756"><text id="SvgjsText1757" font-family="微软雅黑" text-anchor="middle" font-size="14px" width="144px" fill="#323232" font-weight="400" align="middle" lineHeight="125%" anchor="middle" family="微软雅黑" size="14px" weight="400" font-style="" opacity="1" y="8.25" transform="rotate(0)"><tspan id="SvgjsTspan1758" dy="17" x="82"><tspan id="SvgjsTspan1759" style="text-decoration:;">vModelCheckbox</tspan></tspan></text></g></g><g id="SvgjsG1760"><path id="SvgjsPath1761" d="M523.921875 74.578125L523.921875 103.16903409090912L523.9218750000001 103.16903409090912L523.9218750000001 130.4599431818182" stroke="#323232" stroke-width="1" fill="none" marker-end="url(#SvgjsMarker1762)"></path></g><g id="SvgjsG1764"><path id="SvgjsPath1765" d="M523.9218750000001 177.75994318181785L523.9218750000001 231.1690340909089L194.921875 231.1690340909089L194.921875 283.278125" stroke="#323232" stroke-width="1" fill="none" marker-end="url(#SvgjsMarker1766)"></path></g><g id="SvgjsG1768"><path id="SvgjsPath1769" d="M523.9218750000001 177.75994318181785L523.9218750000001 231.1690340909089L360.921875 231.1690340909089L360.921875 283.278125" stroke="#323232" stroke-width="1" fill="none" marker-end="url(#SvgjsMarker1770)"></path></g><g id="SvgjsG1772"><path id="SvgjsPath1773" d="M523.9218750000001 177.75994318181785L523.9218750000001 231.1690340909089L523.921875 231.1690340909089L523.921875 283.278125" stroke="#323232" stroke-width="1" fill="none" marker-end="url(#SvgjsMarker1774)"></path></g><g id="SvgjsG1776"><path id="SvgjsPath1777" d="M523.9218750000001 177.75994318181785L523.9218750000001 231.1690340909089L686.9673295454546 231.1690340909089L686.9673295454546 283.278125" stroke="#323232" stroke-width="1" fill="none" marker-end="url(#SvgjsMarker1778)"></path></g><g id="SvgjsG1780"><path id="SvgjsPath1781" d="M523.9218750000001 177.75994318181785L523.9218750000001 231.1690340909089L851.0127840909093 231.1690340909089L851.0127840909093 283.278125" stroke="#323232" stroke-width="1" fill="none" marker-end="url(#SvgjsMarker1782)"></path></g><g id="SvgjsG1784"><path id="SvgjsPath1785" d="M194.921875 360.578125L194.921875 396.578125L194.921875 396.578125L194.921875 431.27812500000005" stroke="#323232" stroke-width="1" fill="none" marker-end="url(#SvgjsMarker1786)"></path></g><g id="SvgjsG1788"><path id="SvgjsPath1789" d="M360.921875 360.578125L360.921875 396.578125L360.921875 396.578125L360.921875 431.27812500000005" stroke="#323232" stroke-width="1" fill="none" marker-end="url(#SvgjsMarker1790)"></path></g><g id="SvgjsG1792"><path id="SvgjsPath1793" d="M523.921875 360.578125L523.921875 396.578125L523.921875 396.578125L523.921875 431.27812500000005" stroke="#323232" stroke-width="1" fill="none" marker-end="url(#SvgjsMarker1794)"></path></g><g id="SvgjsG1796"><path id="SvgjsPath1797" d="M686.9673295454546 360.578125L686.9673295454546 396.3281250000001L765.421875 396.3281250000001L765.421875 431.27812500000005" stroke="#323232" stroke-width="1" fill="none" marker-end="url(#SvgjsMarker1798)"></path></g><g id="SvgjsG1800"><path id="SvgjsPath1801" d="M851.0127840909093 360.578125L851.0127840909093 396.82812500000006L765.421875 396.82812500000006L765.421875 431.27812500000005" stroke="#323232" stroke-width="1" fill="none" marker-end="url(#SvgjsMarker1802)"></path></g><g id="SvgjsG1804" transform="translate(25.012784090909065,302.578125)"><path id="SvgjsPath1805" d="M 0 0L 88.18181818181816 0L 88.18181818181816 40L 0 40Z" stroke="none" fill="none"></path><g id="SvgjsG1806"><text id="SvgjsText1807" font-family="微软雅黑" text-anchor="middle" font-size="14px" width="89px" fill="#323232" font-weight="700" align="middle" lineHeight="125%" anchor="middle" family="微软雅黑" size="14px" weight="700" font-style="" opacity="1" y="9.25" transform="rotate(0)"><tspan id="SvgjsTspan1808" dy="17" x="44.5"><tspan id="SvgjsTspan1809" style="text-decoration:;">TagName</tspan></tspan></text></g></g><g id="SvgjsG1810" transform="translate(125.96732954545433,25.00994318181816)"><path id="SvgjsPath1811" d="M 0 0L 293.95454545454567 0L 293.95454545454567 53.136363636363626L 0 53.136363636363626Z" stroke="none" fill="none"></path><g id="SvgjsG1812"><text id="SvgjsText1813" font-family="微软雅黑" text-anchor="middle" font-size="13px" width="294px" fill="#323232" font-weight="400" align="middle" lineHeight="125%" anchor="middle" family="微软雅黑" size="13px" weight="400" font-style="" opacity="1" y="8.443181818181813" transform="rotate(0)"><tspan id="SvgjsTspan1814" dy="16" x="147"><tspan id="SvgjsTspan1815" style="text-decoration:;">在created、mounted、beforeUpdate、updated</tspan></tspan><tspan id="SvgjsTspan1816" dy="16" x="147"><tspan id="SvgjsTspan1817" style="text-decoration:;">生命周期中调用callModelHook</tspan></tspan></text></g></g><g id="SvgjsG1818" transform="translate(25.012784090909065,431.578125)"><path id="SvgjsPath1819" d="M 0 0L 88.18181818181816 0L 88.18181818181816 40L 0 40Z" stroke="none" fill="none"></path><g id="SvgjsG1820"><text id="SvgjsText1821" font-family="微软雅黑" text-anchor="middle" font-size="14px" width="89px" fill="#323232" font-weight="700" align="middle" lineHeight="125%" anchor="middle" family="微软雅黑" size="14px" weight="700" font-style="" opacity="1" y="9.25" transform="rotate(0)"><tspan id="SvgjsTspan1822" dy="17" x="44.5"><tspan id="SvgjsTspan1823" style="text-decoration:;">directives</tspan></tspan></text></g></g></svg>