<svg id="SvgjsSvg1006" width="1350.5" height="773.5" xmlns="http://www.w3.org/2000/svg" version="1.1" xmlns:xlink="http://www.w3.org/1999/xlink" xmlns:svgjs="http://svgjs.com/svgjs"><defs id="SvgjsDefs1007"><marker id="SvgjsMarker1094" markerWidth="14" markerHeight="10" refX="10" refY="5" viewBox="0 0 14 10" orient="auto" markerUnits="userSpaceOnUse" stroke-dasharray="0,0"><path id="SvgjsPath1095" d="M0,0 L14,5 L0,10 L0,0" fill="#dadada" stroke="#dadada" stroke-width="1"></path></marker><marker id="SvgjsMarker1098" markerWidth="14" markerHeight="10" refX="10" refY="5" viewBox="0 0 14 10" orient="auto" markerUnits="userSpaceOnUse" stroke-dasharray="0,0"><path id="SvgjsPath1099" d="M0,0 L14,5 L0,10 L0,0" fill="#dadada" stroke="#dadada" stroke-width="1"></path></marker><marker id="SvgjsMarker1102" markerWidth="14" markerHeight="10" refX="10" refY="5" viewBox="0 0 14 10" orient="auto" markerUnits="userSpaceOnUse" stroke-dasharray="0,0"><path id="SvgjsPath1103" d="M0,0 L14,5 L0,10 L0,0" fill="#dadada" stroke="#dadada" stroke-width="1"></path></marker><marker id="SvgjsMarker1106" markerWidth="14" markerHeight="10" refX="10" refY="5" viewBox="0 0 14 10" orient="auto" markerUnits="userSpaceOnUse" stroke-dasharray="0,0"><path id="SvgjsPath1107" d="M0,0 L14,5 L0,10 L0,0" fill="#dadada" stroke="#dadada" stroke-width="1"></path></marker><marker id="SvgjsMarker1116" markerWidth="14" markerHeight="10" refX="10" refY="5" viewBox="0 0 14 10" orient="auto" markerUnits="userSpaceOnUse" stroke-dasharray="0,0"><path id="SvgjsPath1117" d="M0,0 L14,5 L0,10 L0,0" fill="#9e9e9e" stroke="#9e9e9e" stroke-width="1"></path></marker><marker id="SvgjsMarker1144" markerWidth="14" markerHeight="10" refX="10" refY="5" viewBox="0 0 14 10" orient="auto" markerUnits="userSpaceOnUse" stroke-dasharray="0,0"><path id="SvgjsPath1145" d="M0,0 L14,5 L0,10 L0,0" fill="#2195f3" stroke="#2195f3" stroke-width="1"></path></marker><marker id="SvgjsMarker1148" markerWidth="14" markerHeight="10" refX="10" refY="5" viewBox="0 0 14 10" orient="auto" markerUnits="userSpaceOnUse" stroke-dasharray="0,0"><path id="SvgjsPath1149" d="M0,0 L14,5 L0,10 L0,0" fill="#e57373" stroke="#e57373" stroke-width="1"></path></marker><marker id="SvgjsMarker1152" markerWidth="14" markerHeight="10" refX="10" refY="5" viewBox="0 0 14 10" orient="auto" markerUnits="userSpaceOnUse" stroke-dasharray="0,0"><path id="SvgjsPath1153" d="M0,0 L14,5 L0,10 L0,0" fill="#e57373" stroke="#e57373" stroke-width="1"></path></marker><marker id="SvgjsMarker1156" markerWidth="14" markerHeight="10" refX="10" refY="5" viewBox="0 0 14 10" orient="auto" markerUnits="userSpaceOnUse" stroke-dasharray="0,0"><path id="SvgjsPath1157" d="M0,0 L14,5 L0,10 L0,0" fill="#e57373" stroke="#e57373" stroke-width="1"></path></marker><marker id="SvgjsMarker1160" markerWidth="14" markerHeight="10" refX="10" refY="5" viewBox="0 0 14 10" orient="auto" markerUnits="userSpaceOnUse" stroke-dasharray="0,0"><path id="SvgjsPath1161" d="M0,0 L14,5 L0,10 L0,0" fill="#e57373" stroke="#e57373" stroke-width="1"></path></marker><marker id="SvgjsMarker1164" markerWidth="14" markerHeight="10" refX="10" refY="5" viewBox="0 0 14 10" orient="auto" markerUnits="userSpaceOnUse" stroke-dasharray="0,0"><path id="SvgjsPath1165" d="M0,0 L14,5 L0,10 L0,0" fill="#e57373" stroke="#e57373" stroke-width="1"></path></marker><marker id="SvgjsMarker1168" markerWidth="14" markerHeight="10" refX="10" refY="5" viewBox="0 0 14 10" orient="auto" markerUnits="userSpaceOnUse" stroke-dasharray="0,0"><path id="SvgjsPath1169" d="M0,0 L14,5 L0,10 L0,0" fill="#bbded6" stroke="#bbded6" stroke-width="1"></path></marker><marker id="SvgjsMarker1172" markerWidth="14" markerHeight="10" refX="10" refY="5" viewBox="0 0 14 10" orient="auto" markerUnits="userSpaceOnUse" stroke-dasharray="0,0"><path id="SvgjsPath1173" d="M0,0 L14,5 L0,10 L0,0" fill="#bbded6" stroke="#bbded6" stroke-width="1"></path></marker><marker id="SvgjsMarker1176" markerWidth="14" markerHeight="10" refX="10" refY="5" viewBox="0 0 14 10" orient="auto" markerUnits="userSpaceOnUse" stroke-dasharray="0,0"><path id="SvgjsPath1177" d="M0,0 L14,5 L0,10 L0,0" fill="#8ac6d1" stroke="#8ac6d1" stroke-width="1"></path></marker><marker id="SvgjsMarker1186" markerWidth="14" markerHeight="10" refX="10" refY="5" viewBox="0 0 14 10" orient="auto" markerUnits="userSpaceOnUse" stroke-dasharray="0,0"><path id="SvgjsPath1187" d="M0,0 L14,5 L0,10 L0,0" fill="#9e9e9e" stroke="#9e9e9e" stroke-width="1"></path></marker><marker id="SvgjsMarker1190" markerWidth="14" markerHeight="10" refX="10" refY="5" viewBox="0 0 14 10" orient="auto" markerUnits="userSpaceOnUse" stroke-dasharray="0,0"><path id="SvgjsPath1191" d="M0,0 L14,5 L0,10 L0,0" fill="#8ac6d1" stroke="#8ac6d1" stroke-width="1"></path></marker><marker id="SvgjsMarker1194" markerWidth="14" markerHeight="10" refX="10" refY="5" viewBox="0 0 14 10" orient="auto" markerUnits="userSpaceOnUse" stroke-dasharray="0,0"><path id="SvgjsPath1195" d="M0,0 L14,5 L0,10 L0,0" fill="#8ac6d1" stroke="#8ac6d1" stroke-width="1"></path></marker><marker id="SvgjsMarker1198" markerWidth="14" markerHeight="10" refX="10" refY="5" viewBox="0 0 14 10" orient="auto" markerUnits="userSpaceOnUse" stroke-dasharray="0,0"><path id="SvgjsPath1199" d="M0,0 L14,5 L0,10 L0,0" fill="#8ac6d1" stroke="#8ac6d1" stroke-width="1"></path></marker><marker id="SvgjsMarker1202" markerWidth="14" markerHeight="10" refX="10" refY="5" viewBox="0 0 14 10" orient="auto" markerUnits="userSpaceOnUse" stroke-dasharray="0,0"><path id="SvgjsPath1203" d="M0,0 L14,5 L0,10 L0,0" fill="#8ac6d1" stroke="#8ac6d1" stroke-width="1"></path></marker><marker id="SvgjsMarker1206" markerWidth="14" markerHeight="10" refX="10" refY="5" viewBox="0 0 14 10" orient="auto" markerUnits="userSpaceOnUse" stroke-dasharray="0,0"><path id="SvgjsPath1207" d="M0,0 L14,5 L0,10 L0,0" fill="#fae3a9" stroke="#fae3a9" stroke-width="1"></path></marker><marker id="SvgjsMarker1210" markerWidth="14" markerHeight="10" refX="10" refY="5" viewBox="0 0 14 10" orient="auto" markerUnits="userSpaceOnUse" stroke-dasharray="0,0"><path id="SvgjsPath1211" d="M0,0 L14,5 L0,10 L0,0" fill="#bbded6" stroke="#bbded6" stroke-width="1"></path></marker><marker id="SvgjsMarker1214" markerWidth="14" markerHeight="10" refX="10" refY="5" viewBox="0 0 14 10" orient="auto" markerUnits="userSpaceOnUse" stroke-dasharray="0,0"><path id="SvgjsPath1215" d="M0,0 L14,5 L0,10 L0,0" fill="#fae3a9" stroke="#fae3a9" stroke-width="1"></path></marker><marker id="SvgjsMarker1218" markerWidth="14" markerHeight="10" refX="10" refY="5" viewBox="0 0 14 10" orient="auto" markerUnits="userSpaceOnUse" stroke-dasharray="0,0"><path id="SvgjsPath1219" d="M0,0 L14,5 L0,10 L0,0" fill="#fae3a9" stroke="#fae3a9" stroke-width="1"></path></marker><marker id="SvgjsMarker1222" markerWidth="14" markerHeight="10" refX="10" refY="5" viewBox="0 0 14 10" orient="auto" markerUnits="userSpaceOnUse" stroke-dasharray="0,0"><path id="SvgjsPath1223" d="M0,0 L14,5 L0,10 L0,0" fill="#fae3a9" stroke="#fae3a9" stroke-width="1"></path></marker><pattern id="SvgjsPattern1232" x="0" y="0" width="102" height="99" patternUnits="userSpaceOnUse"><image id="SvgjsImage1233" xlink:href="https://cdn.processon.com/61778e5307912943ddfb46a2?e=1635228772&amp;amp;token=trhI0BY8QfVrIGn9nENop6JAc6l5nZuxhjQ62UfM:htK3tHdHh1nGdfenzf3OECjnpzM=" width="102" height="99" preserveAspectRatio="none" crossOrigin="anonymous" x="0" y="0"></image></pattern></defs><g id="SvgjsG1008" transform="translate(34.5,577)"><path id="SvgjsPath1009" d="M 0 0L 177 0L 177 43L 0 43Z" stroke="none" fill-opacity="1" fill="#e57373"></path><g id="SvgjsG1010"><text id="SvgjsText1011" font-family="微软雅黑" text-anchor="middle" font-size="14px" width="157px" fill="#323232" font-weight="400" align="middle" lineHeight="125%" anchor="middle" family="微软雅黑" size="14px" weight="400" font-style="" opacity="1" y="11.25" transform="rotate(0)"><tspan id="SvgjsTspan1012" dy="17" x="88.5"><tspan id="SvgjsTspan1013" style="text-decoration:;">mutableHandlers</tspan></tspan></text></g></g><g id="SvgjsG1014" transform="translate(375.625,577)"><path id="SvgjsPath1015" d="M 0 0L 177 0L 177 43L 0 43Z" stroke="none" fill-opacity="1" fill="#bbded6"></path><g id="SvgjsG1016"><text id="SvgjsText1017" font-family="微软雅黑" text-anchor="middle" font-size="14px" width="157px" fill="#323232" font-weight="400" align="middle" lineHeight="125%" anchor="middle" family="微软雅黑" size="14px" weight="400" font-style="" opacity="1" y="11.25" transform="rotate(0)"><tspan id="SvgjsTspan1018" dy="17" x="88.5"><tspan id="SvgjsTspan1019" style="text-decoration:;">readonlyHandlers</tspan></tspan></text></g></g><g id="SvgjsG1020" transform="translate(716.75,577)"><path id="SvgjsPath1021" d="M 0 0L 212 0L 212 43L 0 43Z" stroke="none" fill-opacity="1" fill="#8ac6d1"></path><g id="SvgjsG1022"><text id="SvgjsText1023" font-family="微软雅黑" text-anchor="middle" font-size="14px" width="192px" fill="#323232" font-weight="400" align="middle" lineHeight="125%" anchor="middle" family="微软雅黑" size="14px" weight="400" font-style="" opacity="1" y="11.25" transform="rotate(0)"><tspan id="SvgjsTspan1024" dy="17" x="106"><tspan id="SvgjsTspan1025" style="text-decoration:;">shallowReactiveHandlers</tspan></tspan></text></g></g><g id="SvgjsG1026" transform="translate(1092.5,577)"><path id="SvgjsPath1027" d="M 0 0L 233 0L 233 43L 0 43Z" stroke="none" fill-opacity="1" fill="#fae3a9"></path><g id="SvgjsG1028"><text id="SvgjsText1029" font-family="微软雅黑" text-anchor="middle" font-size="14px" width="213px" fill="#323232" font-weight="400" align="middle" lineHeight="125%" anchor="middle" family="微软雅黑" size="14px" weight="400" font-style="" opacity="1" y="11.25" transform="rotate(0)"><tspan id="SvgjsTspan1030" dy="17" x="116.5"><tspan id="SvgjsTspan1031" style="text-decoration:;">shallowReadonlyHandlers</tspan></tspan></text></g></g><g id="SvgjsG1032" transform="translate(34.5,294)"><path id="SvgjsPath1033" d="M 0 0L 101 0L 101 43L 0 43Z" stroke="none" fill-opacity="1" fill="#fff7f7"></path><g id="SvgjsG1034"><text id="SvgjsText1035" font-family="微软雅黑" text-anchor="middle" font-size="14px" width="81px" fill="#323232" font-weight="400" align="middle" lineHeight="125%" anchor="middle" family="微软雅黑" size="14px" weight="400" font-style="" opacity="1" y="11.25" transform="rotate(0)"><tspan id="SvgjsTspan1036" dy="17" x="50.5"><tspan id="SvgjsTspan1037" style="text-decoration:;">get</tspan></tspan></text></g></g><g id="SvgjsG1038" transform="translate(716.75,294)"><path id="SvgjsPath1039" d="M 0 0L 59 0L 59 43L 0 43Z" stroke="none" fill-opacity="1" fill="#fff7f7"></path><g id="SvgjsG1040"><text id="SvgjsText1041" font-family="微软雅黑" text-anchor="middle" font-size="14px" width="39px" fill="#323232" font-weight="400" align="middle" lineHeight="125%" anchor="middle" family="微软雅黑" size="14px" weight="400" font-style="" opacity="1" y="11.25" transform="rotate(0)"><tspan id="SvgjsTspan1042" dy="17" x="29.5"><tspan id="SvgjsTspan1043" style="text-decoration:;">set</tspan></tspan></text></g></g><g id="SvgjsG1044" transform="translate(919,294)"><path id="SvgjsPath1045" d="M 0 0L 131.5 0L 131.5 43L 0 43Z" stroke="none" fill-opacity="1" fill="#fff7f7"></path><g id="SvgjsG1046"><text id="SvgjsText1047" font-family="微软雅黑" text-anchor="middle" font-size="14px" width="112px" fill="#323232" font-weight="400" align="middle" lineHeight="125%" anchor="middle" family="微软雅黑" size="14px" weight="400" font-style="" opacity="1" y="11.25" transform="rotate(0)"><tspan id="SvgjsTspan1048" dy="17" x="66"><tspan id="SvgjsTspan1049" style="text-decoration:;">deleteProperty</tspan></tspan></text></g></g><g id="SvgjsG1050" transform="translate(1092.5,294)"><path id="SvgjsPath1051" d="M 0 0L 93 0L 93 43L 0 43Z" stroke="none" fill-opacity="1" fill="#fff7f7"></path><g id="SvgjsG1052"><text id="SvgjsText1053" font-family="微软雅黑" text-anchor="middle" font-size="14px" width="73px" fill="#323232" font-weight="400" align="middle" lineHeight="125%" anchor="middle" family="微软雅黑" size="14px" weight="400" font-style="" opacity="1" y="11.25" transform="rotate(0)"><tspan id="SvgjsTspan1054" dy="17" x="46.5"><tspan id="SvgjsTspan1055" style="text-decoration:;">has</tspan></tspan></text></g></g><g id="SvgjsG1056" transform="translate(1232.5,294)"><path id="SvgjsPath1057" d="M 0 0L 93 0L 93 43L 0 43Z" stroke="none" fill-opacity="1" fill="#fff7f7"></path><g id="SvgjsG1058"><text id="SvgjsText1059" font-family="微软雅黑" text-anchor="middle" font-size="14px" width="73px" fill="#323232" font-weight="400" align="middle" lineHeight="125%" anchor="middle" family="微软雅黑" size="14px" weight="400" font-style="" opacity="1" y="11.25" transform="rotate(0)"><tspan id="SvgjsTspan1060" dy="17" x="46.5"><tspan id="SvgjsTspan1061" style="text-decoration:;">ownKeys</tspan></tspan></text></g></g><g id="SvgjsG1062" transform="translate(34,129)"><path id="SvgjsPath1063" d="M 0 0L 642 0L 642 43L 0 43Z" stroke="none" fill-opacity="1" fill="#dadada"></path><g id="SvgjsG1064"><text id="SvgjsText1065" font-family="微软雅黑" text-anchor="middle" font-size="14px" width="622px" fill="#323232" font-weight="400" align="middle" lineHeight="125%" anchor="middle" family="微软雅黑" size="14px" weight="400" font-style="" opacity="1" y="11.25" transform="rotate(0)"><tspan id="SvgjsTspan1066" dy="17" x="321"><tspan id="SvgjsTspan1067" style="text-decoration:;">createGetter(isReadonly, shallow)用于创建get函数</tspan></tspan></text></g></g><g id="SvgjsG1068" transform="translate(716.75,126.5)"><path id="SvgjsPath1069" d="M 0 0L 166 0L 166 48L 0 48Z" stroke="none" fill-opacity="1" fill="#9e9e9e"></path><g id="SvgjsG1070"><text id="SvgjsText1071" font-family="微软雅黑" text-anchor="middle" font-size="14px" width="146px" fill="#323232" font-weight="400" align="middle" lineHeight="125%" anchor="middle" family="微软雅黑" size="14px" weight="400" font-style="" opacity="1" y="13.75" transform="rotate(0)"><tspan id="SvgjsTspan1072" dy="17" x="83"><tspan id="SvgjsTspan1073" style="text-decoration:;">createSetter(shallow)</tspan></tspan></text></g></g><g id="SvgjsG1074" transform="translate(484,294)"><path id="SvgjsPath1075" d="M 0 0L 192 0L 192 43L 0 43Z" stroke="none" fill-opacity="1" fill="#fff7f7"></path><g id="SvgjsG1076"><text id="SvgjsText1077" font-family="微软雅黑" text-anchor="middle" font-size="14px" width="172px" fill="#323232" font-weight="400" align="middle" lineHeight="125%" anchor="middle" family="微软雅黑" size="14px" weight="400" font-style="" opacity="1" y="11.25" transform="rotate(0)"><tspan id="SvgjsTspan1078" dy="17" x="96"><tspan id="SvgjsTspan1079" style="text-decoration:;">shallowReadonlyGet</tspan></tspan></text></g></g><g id="SvgjsG1080" transform="translate(331.5,294)"><path id="SvgjsPath1081" d="M 0 0L 107 0L 107 43L 0 43Z" stroke="none" fill-opacity="1" fill="#fff7f7"></path><g id="SvgjsG1082"><text id="SvgjsText1083" font-family="微软雅黑" text-anchor="middle" font-size="14px" width="87px" fill="#323232" font-weight="400" align="middle" lineHeight="125%" anchor="middle" family="微软雅黑" size="14px" weight="400" font-style="" opacity="1" y="11.25" transform="rotate(0)"><tspan id="SvgjsTspan1084" dy="17" x="53.5"><tspan id="SvgjsTspan1085" style="text-decoration:;">readonlyGet</tspan></tspan></text></g></g><g id="SvgjsG1086" transform="translate(183.5,294)"><path id="SvgjsPath1087" d="M 0 0L 101 0L 101 43L 0 43Z" stroke="none" fill-opacity="1" fill="#fff7f7"></path><g id="SvgjsG1088"><text id="SvgjsText1089" font-family="微软雅黑" text-anchor="middle" font-size="14px" width="81px" fill="#323232" font-weight="400" align="middle" lineHeight="125%" anchor="middle" family="微软雅黑" size="14px" weight="400" font-style="" opacity="1" y="11.25" transform="rotate(0)"><tspan id="SvgjsTspan1090" dy="17" x="50.5"><tspan id="SvgjsTspan1091" style="text-decoration:;">shallowGet</tspan></tspan></text></g></g><g id="SvgjsG1092"><path id="SvgjsPath1093" d="M235.5 171.5L235.5 232.25L235.5 232.25L235.5 291.4" stroke="#dadada" stroke-width="2" fill="none" marker-end="url(#SvgjsMarker1094)"></path></g><g id="SvgjsG1096"><path id="SvgjsPath1097" d="M85 172L85 232.75L85 232.75L85 291.4" stroke="#dadada" stroke-width="2" fill="none" marker-end="url(#SvgjsMarker1098)"></path></g><g id="SvgjsG1100"><path id="SvgjsPath1101" d="M385 172L385 233L385 233L385 291.4" stroke="#dadada" stroke-width="2" fill="none" marker-end="url(#SvgjsMarker1102)"></path></g><g id="SvgjsG1104"><path id="SvgjsPath1105" d="M579 171.5L579 232.5L579 232.5L579 291.4" stroke="#dadada" stroke-width="2" fill="none" marker-end="url(#SvgjsMarker1106)"></path></g><g id="SvgjsG1108" transform="translate(253.5,25)"><path id="SvgjsPath1109" d="M 0 0L 203 0L 203 43L 0 43Z" stroke="none" fill-opacity="1" fill="#2196f3"></path><g id="SvgjsG1110"><text id="SvgjsText1111" font-family="微软雅黑" text-anchor="middle" font-size="14px" width="183px" fill="#323232" font-weight="400" align="middle" lineHeight="125%" anchor="middle" family="微软雅黑" size="14px" weight="400" font-style="" opacity="1" y="11.25" transform="rotate(0)"><tspan id="SvgjsTspan1112" dy="17" x="101.5"><tspan id="SvgjsTspan1113" style="text-decoration:;">arrayInstrumentations</tspan></tspan></text></g></g><g id="SvgjsG1114"><path id="SvgjsPath1115" d="M799.75 174.5L799.75 234.25L746.25 234.25L746.25 291.4" stroke="#9e9e9e" stroke-width="2" fill="none" marker-end="url(#SvgjsMarker1116)"></path></g><g id="SvgjsG1118" transform="translate(25,209)"><path id="SvgjsPath1119" d="M 0 0L 120 0L 120 43L 0 43Z" stroke="none" fill="none"></path><g id="SvgjsG1120"><text id="SvgjsText1121" font-family="微软雅黑" text-anchor="middle" font-size="14px" width="120px" fill="#323232" font-weight="400" align="middle" lineHeight="125%" anchor="middle" family="微软雅黑" size="14px" weight="400" font-style="" opacity="1" y="11.25" transform="rotate(0)"><tspan id="SvgjsTspan1122" dy="17" x="60"><tspan id="SvgjsTspan1123" style="text-decoration:;">false, false</tspan></tspan></text></g></g><g id="SvgjsG1124" transform="translate(325,209)"><path id="SvgjsPath1125" d="M 0 0L 120 0L 120 43L 0 43Z" stroke="none" fill="none"></path><g id="SvgjsG1126"><text id="SvgjsText1127" font-family="微软雅黑" text-anchor="middle" font-size="14px" width="120px" fill="#323232" font-weight="400" align="middle" lineHeight="125%" anchor="middle" family="微软雅黑" size="14px" weight="400" font-style="" opacity="1" y="11.25" transform="rotate(0)"><tspan id="SvgjsTspan1128" dy="17" x="60"><tspan id="SvgjsTspan1129" style="text-decoration:;">true, false</tspan></tspan></text></g></g><g id="SvgjsG1130" transform="translate(174,209)"><path id="SvgjsPath1131" d="M 0 0L 120 0L 120 43L 0 43Z" stroke="none" fill="none"></path><g id="SvgjsG1132"><text id="SvgjsText1133" font-family="微软雅黑" text-anchor="middle" font-size="14px" width="120px" fill="#323232" font-weight="400" align="middle" lineHeight="125%" anchor="middle" family="微软雅黑" size="14px" weight="400" font-style="" opacity="1" y="11.25" transform="rotate(0)"><tspan id="SvgjsTspan1134" dy="17" x="60"><tspan id="SvgjsTspan1135" style="text-decoration:;">false, true</tspan></tspan></text></g></g><g id="SvgjsG1136" transform="translate(520,209)"><path id="SvgjsPath1137" d="M 0 0L 120 0L 120 43L 0 43Z" stroke="none" fill="none"></path><g id="SvgjsG1138"><text id="SvgjsText1139" font-family="微软雅黑" text-anchor="middle" font-size="14px" width="120px" fill="#323232" font-weight="400" align="middle" lineHeight="125%" anchor="middle" family="微软雅黑" size="14px" weight="400" font-style="" opacity="1" y="11.25" transform="rotate(0)"><tspan id="SvgjsTspan1140" dy="17" x="60"><tspan id="SvgjsTspan1141" style="text-decoration:;">true, true</tspan></tspan></text></g></g><g id="SvgjsG1142"><path id="SvgjsPath1143" d="M355 68L355 98.5L355 98.5L355 126.4" stroke="#2195f3" stroke-width="2" fill="none" marker-end="url(#SvgjsMarker1144)"></path></g><g id="SvgjsG1146"><path id="SvgjsPath1147" d="M85 337C 85 434.1958846865442 123.00000000000006 479.8041153134558 122.95019942551886 574.4004769855258" stroke="#e57373" stroke-width="2" fill="none" marker-end="url(#SvgjsMarker1148)"></path></g><g id="SvgjsG1150"><path id="SvgjsPath1151" d="M746.25 337C 746.25 604.1450729472658 171 285.5 123.52055939281183 574.4526449170648" stroke="#e57373" stroke-width="2" fill="none" marker-end="url(#SvgjsMarker1152)"></path></g><g id="SvgjsG1154"><path id="SvgjsPath1155" d="M984.75 337C 1004 692.5 186 229.5 123.55110222450594 574.459077659954" stroke="#e57373" stroke-width="2" fill="none" marker-end="url(#SvgjsMarker1156)"></path></g><g id="SvgjsG1158"><path id="SvgjsPath1159" d="M1139 337C 1103 748.5 193 215.5 123.57442573628305 574.46424861757" stroke="#e57373" stroke-width="2" fill="none" marker-end="url(#SvgjsMarker1160)"></path></g><g id="SvgjsG1162"><path id="SvgjsPath1163" d="M1279 337C 1016 743.5 176 222.5 123.45150099854521 574.4395026170073" stroke="#e57373" stroke-width="2" fill="none" marker-end="url(#SvgjsMarker1164)"></path></g><g id="SvgjsG1166"><path id="SvgjsPath1167" d="M746.25 337C 746.25 485.1591121058708 464.125 428.8408878941292 464.28878731474526 574.405164029167" stroke="#bbded6" stroke-width="2" fill="none" marker-end="url(#SvgjsMarker1168)"></path></g><g id="SvgjsG1170"><path id="SvgjsPath1171" d="M984.75 337C 984.75 566.3121507901402 477 349.5 464.3984138079909 574.414415948069" stroke="#bbded6" stroke-width="2" fill="none" marker-end="url(#SvgjsMarker1172)"></path></g><g id="SvgjsG1174"><path id="SvgjsPath1175" d="M234 337C 345 404.5 822.75 322.6847428878873 822.6565878062165 574.4016785876162" stroke="#8ac6d1" stroke-width="2" fill="none" marker-end="url(#SvgjsMarker1176)"></path></g><g id="SvgjsG1178" transform="translate(802,294)"><path id="SvgjsPath1179" d="M 0 0L 101 0L 101 43L 0 43Z" stroke="none" fill-opacity="1" fill="#fff7f7"></path><g id="SvgjsG1180"><text id="SvgjsText1181" font-family="微软雅黑" text-anchor="middle" font-size="14px" width="81px" fill="#323232" font-weight="400" align="middle" lineHeight="125%" anchor="middle" family="微软雅黑" size="14px" weight="400" font-style="" opacity="1" y="11.25" transform="rotate(0)"><tspan id="SvgjsTspan1182" dy="17" x="50.5"><tspan id="SvgjsTspan1183" style="text-decoration:;">shallowSet</tspan></tspan></text></g></g><g id="SvgjsG1184"><path id="SvgjsPath1185" d="M799.75 174.5L799.75 234.25L852.5 234.25L852.5 291.4" stroke="#9e9e9e" stroke-width="2" fill="none" marker-end="url(#SvgjsMarker1186)"></path></g><g id="SvgjsG1188"><path id="SvgjsPath1189" d="M852.5 337C 899 531.5 822.75 480.26525960132005 822.8548303374607 574.4021142056765" stroke="#8ac6d1" stroke-width="2" fill="none" marker-end="url(#SvgjsMarker1190)"></path></g><g id="SvgjsG1192"><path id="SvgjsPath1193" d="M984.75 337C 1054 527.5 813 436.5 822.7563518076481 574.400007758754" stroke="#8ac6d1" stroke-width="2" fill="none" marker-end="url(#SvgjsMarker1194)"></path></g><g id="SvgjsG1196"><path id="SvgjsPath1197" d="M1139 337C 1196 567.5 835 381.5 823.0660256985327 574.419277667422" stroke="#8ac6d1" stroke-width="2" fill="none" marker-end="url(#SvgjsMarker1198)"></path></g><g id="SvgjsG1200"><path id="SvgjsPath1201" d="M1279 337C 1219 586.5 830 374.5 822.9648997002212 574.4088963511961" stroke="#8ac6d1" stroke-width="2" fill="none" marker-end="url(#SvgjsMarker1202)"></path></g><g id="SvgjsG1204"><path id="SvgjsPath1205" d="M580 337C 662 421.5 1209 307.70729679399034 1208.9045640625327 574.4017521323323" stroke="#fae3a9" stroke-width="2" fill="none" marker-end="url(#SvgjsMarker1206)"></path></g><g id="SvgjsG1208"><path id="SvgjsPath1209" d="M385 337C 385 438.0827507540233 464.125 475.9172492459767 464.0287093920714 574.4017836658921" stroke="#bbded6" stroke-width="2" fill="none" marker-end="url(#SvgjsMarker1210)"></path></g><g id="SvgjsG1212"><path id="SvgjsPath1213" d="M385 337C 438 503.5 1209.0000000000002 233.70397613721184 1208.9170765788517 574.4013227006369" stroke="#fae3a9" stroke-width="2" fill="none" marker-end="url(#SvgjsMarker1214)"></path></g><g id="SvgjsG1216"><path id="SvgjsPath1217" d="M746.25 337C 837 372.5 1209 368.4861875078775 1208.8922445630344 574.4022338893187" stroke="#fae3a9" stroke-width="2" fill="none" marker-end="url(#SvgjsMarker1218)"></path></g><g id="SvgjsG1220"><path id="SvgjsPath1221" d="M984.75 337C 984.75 468.3852731473356 1173 343.5 1208.520478189139 574.4446020206417" stroke="#fae3a9" stroke-width="2" fill="none" marker-end="url(#SvgjsMarker1222)"></path></g><g id="SvgjsG1224" transform="translate(105,26.5)"><path id="SvgjsPath1225" d="M 0 0L 160 0L 160 40L 0 40Z" stroke="none" fill="none"></path><g id="SvgjsG1226"><text id="SvgjsText1227" font-family="微软雅黑" text-anchor="middle" font-size="14px" width="160px" fill="#323232" font-weight="400" align="middle" lineHeight="125%" anchor="middle" family="微软雅黑" size="14px" weight="400" font-style="" opacity="1" y="9.75" transform="rotate(0)"><tspan id="SvgjsTspan1228" dy="17" x="80"><tspan id="SvgjsTspan1229" style="text-decoration:;">处理数组</tspan></tspan></text></g></g><g id="SvgjsG1230" transform="translate(995,174.5)"><path id="SvgjsPath1231" d="M 0 0L 102 0L 102 99L 0 99Z" stroke="none" fill="url(#SvgjsPattern1232)"></path></g></svg>