<svg id="SvgjsSvg1006" width="915.375" height="546" xmlns="http://www.w3.org/2000/svg" version="1.1" xmlns:xlink="http://www.w3.org/1999/xlink" xmlns:svgjs="http://svgjs.com/svgjs"><defs id="SvgjsDefs1007"></defs><g id="SvgjsG1008" transform="translate(25.01250000000016,25.013379204893)"><path id="SvgjsPath1009" d="M 0 4Q 0 0 4 0L 858.8625 0Q 862.8625 0 862.8625 4L 862.8625 491.611620795107Q 862.8625 495.611620795107 858.8625 495.611620795107L 4 495.611620795107Q 0 495.611620795107 0 491.611620795107Z" stroke-dasharray="3,4" stroke="rgba(0,0,0,0.2)" stroke-width="5" fill-opacity="0.2" fill="#e57373"></path><g id="SvgjsG1010"><text id="SvgjsText1011" font-family="微软雅黑" text-anchor="middle" font-size="20px" width="853px" fill="#000000" font-weight="400" align="middle" lineHeight="125%" anchor="middle" family="微软雅黑" size="20px" weight="400" font-style="" opacity="0.2" y="21.400830056793353" transform="rotate(0)"></text></g></g><g id="SvgjsG1012" transform="translate(64.875,83.625)"><path id="SvgjsPath1013" d="M 0 0L 759 0L 759 419L 0 419Z" stroke-dasharray="3,4" stroke="rgba(50,50,50,1)" stroke-width="2" fill-opacity="1" fill="#ffffff"></path><g id="SvgjsG1014"><text id="SvgjsText1015" font-family="微软雅黑" text-anchor="start" font-size="18px" width="739px" fill="#323232" font-weight="400" align="middle" lineHeight="125%" anchor="start" family="微软雅黑" size="18px" weight="400" font-style="" opacity="1" y="196.25" transform="rotate(0)"><tspan id="SvgjsTspan1016" dy="22" x="10"><tspan id="SvgjsTspan1017" style="text-decoration:;">target</tspan></tspan></text></g></g><g id="SvgjsG1018" transform="translate(191.875,82.625)"><path id="SvgjsPath1019" d="M 0 0L 546.6125000000002 0L 546.6125000000002 84L 0 84Z" stroke="rgba(50,50,50,1)" stroke-width="2" fill-opacity="1" fill="#ffffff"></path><g id="SvgjsG1020"><text id="SvgjsText1021" font-family="微软雅黑" text-anchor="start" font-size="18px" width="527px" fill="#323232" font-weight="400" align="middle" lineHeight="125%" anchor="start" family="微软雅黑" size="18px" weight="400" font-style="" opacity="1" y="28.75" transform="rotate(0)"><tspan id="SvgjsTspan1022" dy="22" x="10"><tspan id="SvgjsTspan1023" style="text-decoration:;">key1</tspan></tspan></text></g></g><g id="SvgjsG1024" transform="translate(191.875,330.625)"><path id="SvgjsPath1025" d="M 0 0L 634 0L 634 84L 0 84Z" stroke="rgba(50,50,50,1)" stroke-width="2" fill-opacity="1" fill="#ffffff"></path><g id="SvgjsG1026"><text id="SvgjsText1027" font-family="微软雅黑" text-anchor="start" font-size="18px" width="614px" fill="#323232" font-weight="400" align="middle" lineHeight="125%" anchor="start" family="微软雅黑" size="18px" weight="400" font-style="" opacity="1" y="28.75" transform="rotate(0)"><tspan id="SvgjsTspan1028" dy="22" x="10"><tspan id="SvgjsTspan1029" style="text-decoration:;">key4</tspan></tspan></text></g></g><g id="SvgjsG1030" transform="translate(191.875,245.07454128440367)"><path id="SvgjsPath1031" d="M 0 0L 634 0L 634 84.56880733944956L 0 84.56880733944956Z" stroke="rgba(50,50,50,1)" stroke-width="2" fill-opacity="1" fill="#ffffff"></path><g id="SvgjsG1032"><text id="SvgjsText1033" font-family="微软雅黑" text-anchor="start" font-size="18px" width="614px" fill="#323232" font-weight="400" align="middle" lineHeight="125%" anchor="start" family="微软雅黑" size="18px" weight="400" font-style="" opacity="1" y="29.03440366972478" transform="rotate(0)"><tspan id="SvgjsTspan1034" dy="22" x="10"><tspan id="SvgjsTspan1035" style="text-decoration:;">key3</tspan></tspan></text></g></g><g id="SvgjsG1036" transform="translate(190.58437500000002,163.625)"><path id="SvgjsPath1037" d="M 0 0L 633.290625 0L 633.290625 84L 0 84Z" stroke="rgba(50,50,50,1)" stroke-width="2" fill-opacity="1" fill="#ffffff"></path><g id="SvgjsG1038"><text id="SvgjsText1039" font-family="微软雅黑" text-anchor="start" font-size="18px" width="614px" fill="#323232" font-weight="400" align="middle" lineHeight="125%" anchor="start" family="微软雅黑" size="18px" weight="400" font-style="" opacity="1" y="28.75" transform="rotate(0)"><tspan id="SvgjsTspan1040" dy="22" x="10"><tspan id="SvgjsTspan1041" style="text-decoration:;">key2</tspan></tspan></text></g></g><g id="SvgjsG1042" transform="translate(191.875,414.21215596330285)"><path id="SvgjsPath1043" d="M 0 0L 634 0L 634 88.41284403669725L 0 88.41284403669725Z" stroke="rgba(50,50,50,1)" stroke-width="2" fill-opacity="1" fill="#ffffff"></path><g id="SvgjsG1044"><text id="SvgjsText1045" font-family="微软雅黑" text-anchor="start" font-size="18px" width="614px" fill="#323232" font-weight="400" align="middle" lineHeight="125%" anchor="start" family="微软雅黑" size="18px" weight="400" font-style="" opacity="1" y="30.956422018348626" transform="rotate(0)"><tspan id="SvgjsTspan1046" dy="22" x="10"><tspan id="SvgjsTspan1047" style="text-decoration:;">......</tspan></tspan></text></g></g><g id="SvgjsG1048" transform="translate(320.875,82.625)"><path id="SvgjsPath1049" d="M 0 0L 506 0L 506 84L 0 84Z" stroke="rgba(50,50,50,1)" stroke-width="2" fill-opacity="1" fill="#ffffff"></path><g id="SvgjsG1050"><text id="SvgjsText1051" font-family="微软雅黑" text-anchor="middle" font-size="18px" width="486px" fill="#323232" font-weight="400" align="middle" lineHeight="125%" anchor="middle" family="微软雅黑" size="18px" weight="400" font-style="" opacity="1" y="28.75" transform="rotate(0)"></text></g></g><g id="SvgjsG1052" transform="translate(341.375,102.125)"><path id="SvgjsPath1053" d="M 0 0L 157 0L 157 45L 0 45Z" stroke="rgba(50,50,50,1)" stroke-width="2" fill-opacity="1" fill="#ffffff"></path><g id="SvgjsG1054"><text id="SvgjsText1055" font-family="微软雅黑" text-anchor="middle" font-size="18px" width="137px" fill="#323232" font-weight="400" align="middle" lineHeight="125%" anchor="middle" family="微软雅黑" size="18px" weight="400" font-style="" opacity="1" y="9.25" transform="rotate(0)"><tspan id="SvgjsTspan1056" dy="22" x="78.5"><tspan id="SvgjsTspan1057" style="text-decoration:;">effect1</tspan></tspan></text></g></g><g id="SvgjsG1058" transform="translate(649.375,102.125)"><path id="SvgjsPath1059" d="M 0 0L 157 0L 157 45L 0 45Z" stroke="rgba(50,50,50,1)" stroke-width="2" fill-opacity="1" fill="#ffffff"></path><g id="SvgjsG1060"><text id="SvgjsText1061" font-family="微软雅黑" text-anchor="middle" font-size="18px" width="137px" fill="#323232" font-weight="400" align="middle" lineHeight="125%" anchor="middle" family="微软雅黑" size="18px" weight="400" font-style="" opacity="1" y="9.25" transform="rotate(0)"><tspan id="SvgjsTspan1062" dy="22" x="78.5"><tspan id="SvgjsTspan1063" style="text-decoration:;">effect3</tspan></tspan></text></g></g><g id="SvgjsG1064" transform="translate(498.875,102.125)"><path id="SvgjsPath1065" d="M 0 0L 150 0L 150 45L 0 45Z" stroke="rgba(50,50,50,1)" stroke-width="2" fill-opacity="1" fill="#ffffff"></path><g id="SvgjsG1066"><text id="SvgjsText1067" font-family="微软雅黑" text-anchor="middle" font-size="18px" width="130px" fill="#323232" font-weight="400" align="middle" lineHeight="125%" anchor="middle" family="微软雅黑" size="18px" weight="400" font-style="" opacity="1" y="9.25" transform="rotate(0)"><tspan id="SvgjsTspan1068" dy="22" x="75"><tspan id="SvgjsTspan1069" style="text-decoration:;">effect2</tspan></tspan></text></g></g><g id="SvgjsG1070" transform="translate(320.875,163.625)"><path id="SvgjsPath1071" d="M 0 0L 506 0L 506 84L 0 84Z" stroke="rgba(50,50,50,1)" stroke-width="2" fill-opacity="1" fill="#ffffff"></path><g id="SvgjsG1072"><text id="SvgjsText1073" font-family="微软雅黑" text-anchor="middle" font-size="18px" width="486px" fill="#323232" font-weight="400" align="middle" lineHeight="125%" anchor="middle" family="微软雅黑" size="18px" weight="400" font-style="" opacity="1" y="28.75" transform="rotate(0)"></text></g></g><g id="SvgjsG1074" transform="translate(341.375,183.125)"><path id="SvgjsPath1075" d="M 0 0L 157 0L 157 45L 0 45Z" stroke="rgba(50,50,50,1)" stroke-width="2" fill-opacity="1" fill="#ffffff"></path><g id="SvgjsG1076"><text id="SvgjsText1077" font-family="微软雅黑" text-anchor="middle" font-size="18px" width="137px" fill="#323232" font-weight="400" align="middle" lineHeight="125%" anchor="middle" family="微软雅黑" size="18px" weight="400" font-style="" opacity="1" y="9.25" transform="rotate(0)"><tspan id="SvgjsTspan1078" dy="22" x="78.5"><tspan id="SvgjsTspan1079" style="text-decoration:;">effect1</tspan></tspan></text></g></g><g id="SvgjsG1080" transform="translate(649.375,183.125)"><path id="SvgjsPath1081" d="M 0 0L 157 0L 157 45L 0 45Z" stroke="rgba(50,50,50,1)" stroke-width="2" fill-opacity="1" fill="#ffffff"></path><g id="SvgjsG1082"><text id="SvgjsText1083" font-family="微软雅黑" text-anchor="middle" font-size="18px" width="137px" fill="#323232" font-weight="400" align="middle" lineHeight="125%" anchor="middle" family="微软雅黑" size="18px" weight="400" font-style="" opacity="1" y="9.25" transform="rotate(0)"><tspan id="SvgjsTspan1084" dy="22" x="78.5"><tspan id="SvgjsTspan1085" style="text-decoration:;">effect3</tspan></tspan></text></g></g><g id="SvgjsG1086" transform="translate(498.875,183.125)"><path id="SvgjsPath1087" d="M 0 0L 150 0L 150 45L 0 45Z" stroke="rgba(50,50,50,1)" stroke-width="2" fill-opacity="1" fill="#ffffff"></path><g id="SvgjsG1088"><text id="SvgjsText1089" font-family="微软雅黑" text-anchor="middle" font-size="18px" width="130px" fill="#323232" font-weight="400" align="middle" lineHeight="125%" anchor="middle" family="微软雅黑" size="18px" weight="400" font-style="" opacity="1" y="9.25" transform="rotate(0)"><tspan id="SvgjsTspan1090" dy="22" x="75"><tspan id="SvgjsTspan1091" style="text-decoration:;">effect2</tspan></tspan></text></g></g><g id="SvgjsG1092" transform="translate(320.875,245.07454128440367)"><path id="SvgjsPath1093" d="M 0 0L 506 0L 506 84L 0 84Z" stroke="rgba(50,50,50,1)" stroke-width="2" fill-opacity="1" fill="#ffffff"></path><g id="SvgjsG1094"><text id="SvgjsText1095" font-family="微软雅黑" text-anchor="middle" font-size="18px" width="486px" fill="#323232" font-weight="400" align="middle" lineHeight="125%" anchor="middle" family="微软雅黑" size="18px" weight="400" font-style="" opacity="1" y="28.75" transform="rotate(0)"></text></g></g><g id="SvgjsG1096" transform="translate(341.375,263.013379204893)"><path id="SvgjsPath1097" d="M 0 0L 157 0L 157 45L 0 45Z" stroke="rgba(50,50,50,1)" stroke-width="2" fill-opacity="1" fill="#ffffff"></path><g id="SvgjsG1098"><text id="SvgjsText1099" font-family="微软雅黑" text-anchor="middle" font-size="18px" width="137px" fill="#323232" font-weight="400" align="middle" lineHeight="125%" anchor="middle" family="微软雅黑" size="18px" weight="400" font-style="" opacity="1" y="9.25" transform="rotate(0)"><tspan id="SvgjsTspan1100" dy="22" x="78.5"><tspan id="SvgjsTspan1101" style="text-decoration:;">effect1</tspan></tspan></text></g></g><g id="SvgjsG1102" transform="translate(649.3749999999999,263.013379204893)"><path id="SvgjsPath1103" d="M 0 0L 157 0L 157 45L 0 45Z" stroke="rgba(50,50,50,1)" stroke-width="2" fill-opacity="1" fill="#ffffff"></path><g id="SvgjsG1104"><text id="SvgjsText1105" font-family="微软雅黑" text-anchor="middle" font-size="18px" width="137px" fill="#323232" font-weight="400" align="middle" lineHeight="125%" anchor="middle" family="微软雅黑" size="18px" weight="400" font-style="" opacity="1" y="9.25" transform="rotate(0)"><tspan id="SvgjsTspan1106" dy="22" x="78.5"><tspan id="SvgjsTspan1107" style="text-decoration:;">effect3</tspan></tspan></text></g></g><g id="SvgjsG1108" transform="translate(498.875,263.013379204893)"><path id="SvgjsPath1109" d="M 0 0L 150 0L 150 45L 0 45Z" stroke="rgba(50,50,50,1)" stroke-width="2" fill-opacity="1" fill="#ffffff"></path><g id="SvgjsG1110"><text id="SvgjsText1111" font-family="微软雅黑" text-anchor="middle" font-size="18px" width="130px" fill="#323232" font-weight="400" align="middle" lineHeight="125%" anchor="middle" family="微软雅黑" size="18px" weight="400" font-style="" opacity="1" y="9.25" transform="rotate(0)"><tspan id="SvgjsTspan1112" dy="22" x="75"><tspan id="SvgjsTspan1113" style="text-decoration:;">effect2</tspan></tspan></text></g></g><g id="SvgjsG1114" transform="translate(320.875,330.625)"><path id="SvgjsPath1115" d="M 0 0L 504.5 0L 504.5 84L 0 84Z" stroke="rgba(50,50,50,1)" stroke-width="2" fill-opacity="1" fill="#ffffff"></path><g id="SvgjsG1116"><text id="SvgjsText1117" font-family="微软雅黑" text-anchor="middle" font-size="18px" width="485px" fill="#323232" font-weight="400" align="middle" lineHeight="125%" anchor="middle" family="微软雅黑" size="18px" weight="400" font-style="" opacity="1" y="28.75" transform="rotate(0)"></text></g></g><g id="SvgjsG1118" transform="translate(341.375,350.125)"><path id="SvgjsPath1119" d="M 0 0L 157 0L 157 45L 0 45Z" stroke="rgba(50,50,50,1)" stroke-width="2" fill-opacity="1" fill="#ffffff"></path><g id="SvgjsG1120"><text id="SvgjsText1121" font-family="微软雅黑" text-anchor="middle" font-size="18px" width="137px" fill="#323232" font-weight="400" align="middle" lineHeight="125%" anchor="middle" family="微软雅黑" size="18px" weight="400" font-style="" opacity="1" y="9.25" transform="rotate(0)"><tspan id="SvgjsTspan1122" dy="22" x="78.5"><tspan id="SvgjsTspan1123" style="text-decoration:;">effect1</tspan></tspan></text></g></g><g id="SvgjsG1124" transform="translate(649.375,350.125)"><path id="SvgjsPath1125" d="M 0 0L 157 0L 157 45L 0 45Z" stroke="rgba(50,50,50,1)" stroke-width="2" fill-opacity="1" fill="#ffffff"></path><g id="SvgjsG1126"><text id="SvgjsText1127" font-family="微软雅黑" text-anchor="middle" font-size="18px" width="137px" fill="#323232" font-weight="400" align="middle" lineHeight="125%" anchor="middle" family="微软雅黑" size="18px" weight="400" font-style="" opacity="1" y="9.25" transform="rotate(0)"><tspan id="SvgjsTspan1128" dy="22" x="78.5"><tspan id="SvgjsTspan1129" style="text-decoration:;">effect3</tspan></tspan></text></g></g><g id="SvgjsG1130" transform="translate(498.875,350.125)"><path id="SvgjsPath1131" d="M 0 0L 150 0L 150 45L 0 45Z" stroke="rgba(50,50,50,1)" stroke-width="2" fill-opacity="1" fill="#ffffff"></path><g id="SvgjsG1132"><text id="SvgjsText1133" font-family="微软雅黑" text-anchor="middle" font-size="18px" width="130px" fill="#323232" font-weight="400" align="middle" lineHeight="125%" anchor="middle" family="微软雅黑" size="18px" weight="400" font-style="" opacity="1" y="9.25" transform="rotate(0)"><tspan id="SvgjsTspan1134" dy="22" x="75"><tspan id="SvgjsTspan1135" style="text-decoration:;">effect2</tspan></tspan></text></g></g><g id="SvgjsG1136" transform="translate(329.8749999999999,254.9369266055046)"><path id="SvgjsPath1137" d="M 0 4Q 0 0 4 0L 483.5343750000002 0Q 487.5343750000002 0 487.5343750000002 4L 487.5343750000002 60.8440366972477Q 487.5343750000002 64.8440366972477 483.5343750000002 64.8440366972477L 4 64.8440366972477Q 0 64.8440366972477 0 60.8440366972477Z" stroke-dasharray="10,6,3,6" stroke="rgba(255,0,0,0.3)" stroke-width="2" fill-opacity="0.3" fill="#ffb74d"></path><g id="SvgjsG1138"><text id="SvgjsText1139" font-family="微软雅黑" text-anchor="middle" font-size="13px" width="468px" fill="#323232" font-weight="400" align="middle" lineHeight="125%" anchor="middle" family="微软雅黑" size="13px" weight="400" font-style="" opacity="0.3" y="22.79701834862385" transform="rotate(0)"></text></g></g><g id="SvgjsG1140" transform="translate(327.50312499999995,91.56536697247708)"><path id="SvgjsPath1141" d="M 0 4Q 0 0 4 0L 483.5343750000002 0Q 487.5343750000002 0 487.5343750000002 4L 487.5343750000002 60.8440366972477Q 487.5343750000002 64.8440366972477 483.5343750000002 64.8440366972477L 4 64.8440366972477Q 0 64.8440366972477 0 60.8440366972477Z" stroke-dasharray="10,6,3,6" stroke="rgba(255,0,0,0.3)" stroke-width="2" fill-opacity="0.3" fill="#ffb74d"></path><g id="SvgjsG1142"><text id="SvgjsText1143" font-family="微软雅黑" text-anchor="middle" font-size="13px" width="468px" fill="#323232" font-weight="400" align="middle" lineHeight="125%" anchor="middle" family="微软雅黑" size="13px" weight="400" font-style="" opacity="0.3" y="22.79701834862385" transform="rotate(0)"></text></g></g><g id="SvgjsG1144" transform="translate(329.8749999999999,172.29013761467894)"><path id="SvgjsPath1145" d="M 0 4Q 0 0 4 0L 483.5343750000002 0Q 487.5343750000002 0 487.5343750000002 4L 487.5343750000002 60.8440366972477Q 487.5343750000002 64.8440366972477 483.5343750000002 64.8440366972477L 4 64.8440366972477Q 0 64.8440366972477 0 60.8440366972477Z" stroke-dasharray="10,6,3,6" stroke="rgba(255,0,0,0.3)" stroke-width="2" fill-opacity="0.3" fill="#ffb74d"></path><g id="SvgjsG1146"><text id="SvgjsText1147" font-family="微软雅黑" text-anchor="middle" font-size="13px" width="468px" fill="#323232" font-weight="400" align="middle" lineHeight="125%" anchor="middle" family="微软雅黑" size="13px" weight="400" font-style="" opacity="0.3" y="22.79701834862385" transform="rotate(0)"></text></g></g><g id="SvgjsG1148" transform="translate(327.50312499999995,339.50573394495416)"><path id="SvgjsPath1149" d="M 0 4Q 0 0 4 0L 483.5343750000002 0Q 487.5343750000002 0 487.5343750000002 4L 487.5343750000002 60.8440366972477Q 487.5343750000002 64.8440366972477 483.5343750000002 64.8440366972477L 4 64.8440366972477Q 0 64.8440366972477 0 60.8440366972477Z" stroke-dasharray="10,6,3,6" stroke="rgba(255,0,0,0.3)" stroke-width="2" fill-opacity="0.3" fill="#ffb74d"></path><g id="SvgjsG1150"><text id="SvgjsText1151" font-family="微软雅黑" text-anchor="middle" font-size="13px" width="468px" fill="#323232" font-weight="400" align="middle" lineHeight="125%" anchor="middle" family="微软雅黑" size="13px" weight="400" font-style="" opacity="0.3" y="22.79701834862385" transform="rotate(0)"></text></g></g><g id="SvgjsG1152" transform="translate(396.44375000000014,29.625)"><path id="SvgjsPath1153" d="M 0 0L 120 0L 120 45L 0 45Z" stroke="none" fill="none"></path><g id="SvgjsG1154"><text id="SvgjsText1155" font-family="微软雅黑" text-anchor="middle" font-size="19px" width="120px" fill="#e57373" font-weight="700" align="middle" lineHeight="125%" anchor="middle" family="微软雅黑" size="19px" weight="700" font-style="" opacity="1" y="8.625" transform="rotate(0)"><tspan id="SvgjsTspan1156" dy="23" x="60"><tspan id="SvgjsTspan1157" style="text-decoration:;">TargetMap</tspan></tspan></text></g></g><g id="SvgjsG1158" transform="translate(825.375,356.625)"><path id="SvgjsPath1159" d="M 0 0L 65 0L 65 32L 0 32Z" stroke="none" fill="none"></path><g id="SvgjsG1160"><text id="SvgjsText1161" font-family="微软雅黑" text-anchor="middle" font-size="16px" width="65px" fill="#fbc02d" font-weight="700" align="middle" lineHeight="125%" anchor="middle" family="微软雅黑" size="16px" weight="700" font-style="" opacity="1" y="4" transform="rotate(0)"><tspan id="SvgjsTspan1162" dy="20" x="32.5"><tspan id="SvgjsTspan1163" style="text-decoration:;">Dep</tspan></tspan></text></g></g><g id="SvgjsG1164" transform="translate(827.875,108.625)"><path id="SvgjsPath1165" d="M 0 0L 60 0L 60 32L 0 32Z" stroke="none" fill="none"></path><g id="SvgjsG1166"><text id="SvgjsText1167" font-family="微软雅黑" text-anchor="middle" font-size="16px" width="60px" fill="#fbc02d" font-weight="700" align="middle" lineHeight="125%" anchor="middle" family="微软雅黑" size="16px" weight="700" font-style="" opacity="1" y="4" transform="rotate(0)"><tspan id="SvgjsTspan1168" dy="20" x="30"><tspan id="SvgjsTspan1169" style="text-decoration:;">Dep</tspan></tspan></text></g></g><g id="SvgjsG1170" transform="translate(825.375,189.625)"><path id="SvgjsPath1171" d="M 0 0L 65 0L 65 32L 0 32Z" stroke="none" fill="none"></path><g id="SvgjsG1172"><text id="SvgjsText1173" font-family="微软雅黑" text-anchor="middle" font-size="16px" width="65px" fill="#fbc02d" font-weight="700" align="middle" lineHeight="125%" anchor="middle" family="微软雅黑" size="16px" weight="700" font-style="" opacity="1" y="4" transform="rotate(0)"><tspan id="SvgjsTspan1174" dy="20" x="32.5"><tspan id="SvgjsTspan1175" style="text-decoration:;">Dep</tspan></tspan></text></g></g><g id="SvgjsG1176" transform="translate(827.875,281.32912844036696)"><path id="SvgjsPath1177" d="M 0 0L 60 0L 60 32L 0 32Z" stroke="none" fill="none"></path><g id="SvgjsG1178"><text id="SvgjsText1179" font-family="微软雅黑" text-anchor="middle" font-size="16px" width="60px" fill="#fbc02d" font-weight="700" align="middle" lineHeight="125%" anchor="middle" family="微软雅黑" size="16px" weight="700" font-style="" opacity="1" y="4" transform="rotate(0)"><tspan id="SvgjsTspan1180" dy="20" x="30"><tspan id="SvgjsTspan1181" style="text-decoration:;">Dep</tspan></tspan></text></g></g><g id="SvgjsG1182" transform="translate(404.8484374999998,442.12958715596335)"><path id="SvgjsPath1183" d="M 0 0L 204.76250000000016 0L 204.76250000000016 41.49541284403665L 0 41.49541284403665Z" stroke="none" fill="none"></path><g id="SvgjsG1184"><text id="SvgjsText1185" font-family="微软雅黑" text-anchor="middle" font-size="16px" width="205px" fill="#ff0000" font-weight="700" align="middle" lineHeight="125%" anchor="middle" family="微软雅黑" size="16px" weight="700" font-style="" opacity="1" y="8.747706422018325" transform="rotate(0)"><tspan id="SvgjsTspan1186" dy="20" x="102.5"><tspan id="SvgjsTspan1187" style="text-decoration:;">KeyToDepMap</tspan></tspan></text></g></g><g id="SvgjsG1188" transform="translate(192.08437500000002,82.625)"><path id="SvgjsPath1189" d="M 0 4Q 0 0 4 0L 629.2906249999999 0Q 633.2906249999999 0 633.2906249999999 4L 633.2906249999999 417.0581039755351Q 633.2906249999999 421.0581039755351 629.2906249999999 421.0581039755351L 4 421.0581039755351Q 0 421.0581039755351 0 417.0581039755351Z" stroke-dasharray="10,6" stroke="rgba(0,151,167,0.2)" stroke-width="6" fill-opacity="0.2" fill="#4caf50"></path><g id="SvgjsG1190"><text id="SvgjsText1191" font-family="微软雅黑" text-anchor="middle" font-size="13px" width="614px" fill="#323232" font-weight="400" align="middle" lineHeight="125%" anchor="middle" family="微软雅黑" size="13px" weight="400" font-style="" opacity="0.2" y="200.90405198776756" transform="rotate(0)"></text></g></g></svg>