<svg id="SvgjsSvg1171" width="543" height="501" xmlns="http://www.w3.org/2000/svg" version="1.1" xmlns:xlink="http://www.w3.org/1999/xlink" xmlns:svgjs="http://svgjs.com/svgjs"><defs id="SvgjsDefs1172"><marker id="SvgjsMarker1211" markerWidth="14" markerHeight="10" refX="10" refY="5" viewBox="0 0 14 10" orient="auto" markerUnits="userSpaceOnUse" stroke-dasharray="0,0"><path id="SvgjsPath1212" d="M0,0 L14,5 L0,10 L0,0" fill="#e76f51" stroke="#e76f51" stroke-width="1"></path></marker><marker id="SvgjsMarker1215" markerWidth="14" markerHeight="10" refX="10" refY="5" viewBox="0 0 14 10" orient="auto" markerUnits="userSpaceOnUse" stroke-dasharray="0,0"><path id="SvgjsPath1216" d="M0,0 L14,5 L0,10 L0,0" fill="#e76f51" stroke="#e76f51" stroke-width="1"></path></marker><marker id="SvgjsMarker1219" markerWidth="14" markerHeight="10" refX="10" refY="5" viewBox="0 0 14 10" orient="auto" markerUnits="userSpaceOnUse" stroke-dasharray="0,0"><path id="SvgjsPath1220" d="M0,0 L14,5 L0,10 L0,0" fill="#f4a361" stroke="#f4a361" stroke-width="1"></path></marker><marker id="SvgjsMarker1223" markerWidth="14" markerHeight="10" refX="10" refY="5" viewBox="0 0 14 10" orient="auto" markerUnits="userSpaceOnUse" stroke-dasharray="0,0"><path id="SvgjsPath1224" d="M0,0 L14,5 L0,10 L0,0" fill="#2a9d90" stroke="#2a9d90" stroke-width="1"></path></marker><marker id="SvgjsMarker1227" markerWidth="14" markerHeight="10" refX="10" refY="5" viewBox="0 0 14 10" orient="auto" markerUnits="userSpaceOnUse" stroke-dasharray="0,0"><path id="SvgjsPath1228" d="M0,0 L14,5 L0,10 L0,0" fill="#2a9d90" stroke="#2a9d90" stroke-width="1"></path></marker></defs><g id="SvgjsG1173" transform="translate(145,25)"><path id="SvgjsPath1174" d="M 0 0L 122 0L 122 42L 0 42Z" stroke="none" fill-opacity="1" fill="#e76f51"></path><g id="SvgjsG1175"><text id="SvgjsText1176" font-family="微软雅黑" text-anchor="middle" font-size="13px" width="102px" fill="#323232" font-weight="400" align="middle" lineHeight="125%" anchor="middle" family="微软雅黑" size="13px" weight="400" font-style="" opacity="1" y="11.375" transform="rotate(0)"><tspan id="SvgjsTspan1177" dy="16" x="61"><tspan id="SvgjsTspan1178" style="text-decoration:;">ref()</tspan></tspan></text></g></g><g id="SvgjsG1179" transform="translate(145,161)"><path id="SvgjsPath1180" d="M 0 0L 298 0L 298 42L 0 42Z" stroke="none" fill-opacity="1" fill="#f4a361"></path><g id="SvgjsG1181"><text id="SvgjsText1182" font-family="微软雅黑" text-anchor="middle" font-size="13px" width="278px" fill="#323232" font-weight="400" align="middle" lineHeight="125%" anchor="middle" family="微软雅黑" size="13px" weight="400" font-style="" opacity="1" y="11.375" transform="rotate(0)"><tspan id="SvgjsTspan1183" dy="16" x="149"><tspan id="SvgjsTspan1184" style="text-decoration:;">Factory Function createRef()</tspan></tspan></text></g></g><g id="SvgjsG1185" transform="translate(333,434)"><path id="SvgjsPath1186" d="M 0 0L 100 0L 100 42L 0 42Z" stroke="none" fill-opacity="1" fill="#e9c56a"></path><g id="SvgjsG1187"><text id="SvgjsText1188" font-family="微软雅黑" text-anchor="middle" font-size="13px" width="80px" fill="#323232" font-weight="400" align="middle" lineHeight="125%" anchor="middle" family="微软雅黑" size="13px" weight="400" font-style="" opacity="1" y="11.375" transform="rotate(0)"><tspan id="SvgjsTspan1189" dy="16" x="50"><tspan id="SvgjsTspan1190" style="text-decoration:;">set &amp; trigger</tspan></tspan></text></g></g><g id="SvgjsG1191" transform="translate(145,434)"><path id="SvgjsPath1192" d="M 0 0L 122 0L 122 42L 0 42Z" stroke="none" fill-opacity="1" fill="#e9c56a"></path><g id="SvgjsG1193"><text id="SvgjsText1194" font-family="微软雅黑" text-anchor="middle" font-size="13px" width="102px" fill="#323232" font-weight="400" align="middle" lineHeight="125%" anchor="middle" family="微软雅黑" size="13px" weight="400" font-style="" opacity="1" y="11.375" transform="rotate(0)"><tspan id="SvgjsTspan1195" dy="16" x="61"><tspan id="SvgjsTspan1196" style="text-decoration:;">get &amp; Track</tspan></tspan></text></g></g><g id="SvgjsG1197" transform="translate(145,279)"><path id="SvgjsPath1198" d="M 0 0L 298 0L 298 42L 0 42Z" stroke="none" fill-opacity="1" fill="#2a9d90"></path><g id="SvgjsG1199"><text id="SvgjsText1200" font-family="微软雅黑" text-anchor="middle" font-size="13px" width="278px" fill="#323232" font-weight="400" align="middle" lineHeight="125%" anchor="middle" family="微软雅黑" size="13px" weight="400" font-style="" opacity="1" y="11.375" transform="rotate(0)"><tspan id="SvgjsTspan1201" dy="16" x="149"><tspan id="SvgjsTspan1202" style="text-decoration:;">Class RefImpl</tspan></tspan></text></g></g><g id="SvgjsG1203" transform="translate(322,25)"><path id="SvgjsPath1204" d="M 0 0L 122 0L 122 42L 0 42Z" stroke="none" fill-opacity="1" fill="#e76f51"></path><g id="SvgjsG1205"><text id="SvgjsText1206" font-family="微软雅黑" text-anchor="middle" font-size="13px" width="102px" fill="#323232" font-weight="400" align="middle" lineHeight="125%" anchor="middle" family="微软雅黑" size="13px" weight="400" font-style="" opacity="1" y="11.375" transform="rotate(0)"><tspan id="SvgjsTspan1207" dy="16" x="61"><tspan id="SvgjsTspan1208" style="text-decoration:;">shallowRef()</tspan></tspan></text></g></g><g id="SvgjsG1209"><path id="SvgjsPath1210" d="M206.25 67L206.25 114.5L206.25 114.5L206.25 158.39999999999998" stroke="#e76f51" stroke-width="2" fill="none" marker-end="url(#SvgjsMarker1211)"></path></g><g id="SvgjsG1213"><path id="SvgjsPath1214" d="M382.5 67L382.5 114.5L382.5 114.5L382.5 158.39999999999998" stroke="#e76f51" stroke-width="2" fill="none" marker-end="url(#SvgjsMarker1215)"></path></g><g id="SvgjsG1217"><path id="SvgjsPath1218" d="M294 203L294 241L294 241L294 276.4" stroke="#f4a361" stroke-width="2" fill="none" marker-end="url(#SvgjsMarker1219)"></path></g><g id="SvgjsG1221"><path id="SvgjsPath1222" d="M207.75 318L207.75 376L207.75 376L207.75 431.4" stroke="#2a9d90" stroke-width="2" fill="none" marker-end="url(#SvgjsMarker1223)"></path></g><g id="SvgjsG1225"><path id="SvgjsPath1226" d="M383 321L383 377.5L383 377.5L383 431.4" stroke="#2a9d90" stroke-width="2" fill="none" marker-end="url(#SvgjsMarker1227)"></path></g><g id="SvgjsG1229" transform="translate(398,94)"><path id="SvgjsPath1230" d="M 0 0L 120 0L 120 40L 0 40Z" stroke="none" fill="none"></path><g id="SvgjsG1231"><text id="SvgjsText1232" font-family="微软雅黑" text-anchor="middle" font-size="13px" width="120px" fill="#323232" font-weight="400" align="middle" lineHeight="125%" anchor="middle" family="微软雅黑" size="13px" weight="400" font-style="" opacity="1" y="10.375" transform="rotate(0)"><tspan id="SvgjsTspan1233" dy="16" x="60"><tspan id="SvgjsTspan1234" style="text-decoration:;">shallow = true</tspan></tspan></text></g></g><g id="SvgjsG1235" transform="translate(25,26)"><path id="SvgjsPath1236" d="M 0 0L 120 0L 120 40L 0 40Z" stroke="none" fill="none"></path><g id="SvgjsG1237"><text id="SvgjsText1238" font-family="微软雅黑" text-anchor="middle" font-size="13px" width="120px" fill="#323232" font-weight="700" align="middle" lineHeight="125%" anchor="middle" family="微软雅黑" size="13px" weight="700" font-style="" opacity="1" y="10.375" transform="rotate(0)"><tspan id="SvgjsTspan1239" dy="16" x="60"><tspan id="SvgjsTspan1240" style="text-decoration:;">API</tspan></tspan></text></g></g><g id="SvgjsG1241" transform="translate(25,280)"><path id="SvgjsPath1242" d="M 0 0L 120 0L 120 40L 0 40Z" stroke="none" fill="none"></path><g id="SvgjsG1243"><text id="SvgjsText1244" font-family="微软雅黑" text-anchor="middle" font-size="13px" width="120px" fill="#323232" font-weight="700" align="middle" lineHeight="125%" anchor="middle" family="微软雅黑" size="13px" weight="700" font-style="" opacity="1" y="10.375" transform="rotate(0)"><tspan id="SvgjsTspan1245" dy="16" x="60"><tspan id="SvgjsTspan1246" style="text-decoration:;">Ref Class</tspan></tspan></text></g></g><g id="SvgjsG1247" transform="translate(25,162.5)"><path id="SvgjsPath1248" d="M 0 0L 120 0L 120 40L 0 40Z" stroke="none" fill="none"></path><g id="SvgjsG1249"><text id="SvgjsText1250" font-family="微软雅黑" text-anchor="middle" font-size="13px" width="120px" fill="#323232" font-weight="700" align="middle" lineHeight="125%" anchor="middle" family="微软雅黑" size="13px" weight="700" font-style="" opacity="1" y="10.375" transform="rotate(0)"><tspan id="SvgjsTspan1251" dy="16" x="60"><tspan id="SvgjsTspan1252" style="text-decoration:;">工厂函数</tspan></tspan></text></g></g></svg>