<svg id="SvgjsSvg1687" width="1501.328125" height="854" xmlns="http://www.w3.org/2000/svg" version="1.1" xmlns:xlink="http://www.w3.org/1999/xlink" xmlns:svgjs="http://svgjs.com/svgjs"><defs id="SvgjsDefs1688"><marker id="SvgjsMarker1849" markerWidth="14" markerHeight="10" refX="10" refY="5" viewBox="0 0 14 10" orient="auto" markerUnits="userSpaceOnUse" stroke-dasharray="0,0"><path id="SvgjsPath1850" d="M0,0 L14,5 L0,10 L0,0" fill="#43aa8b" stroke="#43aa8b" stroke-width="1"></path></marker><marker id="SvgjsMarker1853" markerWidth="14" markerHeight="10" refX="10" refY="5" viewBox="0 0 14 10" orient="auto" markerUnits="userSpaceOnUse" stroke-dasharray="0,0"><path id="SvgjsPath1854" d="M0,0 L14,5 L0,10 L0,0" fill="#90be6d" stroke="#90be6d" stroke-width="1"></path></marker><marker id="SvgjsMarker1857" markerWidth="14" markerHeight="10" refX="10" refY="5" viewBox="0 0 14 10" orient="auto" markerUnits="userSpaceOnUse" stroke-dasharray="0,0"><path id="SvgjsPath1858" d="M0,0 L14,5 L0,10 L0,0" fill="#f9c64f" stroke="#f9c64f" stroke-width="1"></path></marker><marker id="SvgjsMarker1861" markerWidth="14" markerHeight="10" refX="10" refY="5" viewBox="0 0 14 10" orient="auto" markerUnits="userSpaceOnUse" stroke-dasharray="0,0"><path id="SvgjsPath1862" d="M0,0 L14,5 L0,10 L0,0" fill="#f3722c" stroke="#f3722c" stroke-width="1"></path></marker><marker id="SvgjsMarker1865" markerWidth="14" markerHeight="10" refX="10" refY="5" viewBox="0 0 14 10" orient="auto" markerUnits="userSpaceOnUse" stroke-dasharray="0,0"><path id="SvgjsPath1866" d="M0,0 L14,5 L0,10 L0,0" fill="#f3722c" stroke="#f3722c" stroke-width="1"></path></marker><marker id="SvgjsMarker1869" markerWidth="14" markerHeight="10" refX="10" refY="5" viewBox="0 0 14 10" orient="auto" markerUnits="userSpaceOnUse" stroke-dasharray="0,0"><path id="SvgjsPath1870" d="M0,0 L14,5 L0,10 L0,0" fill="#f9c64f" stroke="#f9c64f" stroke-width="1"></path></marker><marker id="SvgjsMarker1873" markerWidth="14" markerHeight="10" refX="10" refY="5" viewBox="0 0 14 10" orient="auto" markerUnits="userSpaceOnUse" stroke-dasharray="0,0"><path id="SvgjsPath1874" d="M0,0 L14,5 L0,10 L0,0" fill="#90be6d" stroke="#90be6d" stroke-width="1"></path></marker><marker id="SvgjsMarker1877" markerWidth="14" markerHeight="10" refX="10" refY="5" viewBox="0 0 14 10" orient="auto" markerUnits="userSpaceOnUse" stroke-dasharray="0,0"><path id="SvgjsPath1878" d="M0,0 L14,5 L0,10 L0,0" fill="#43aa8b" stroke="#43aa8b" stroke-width="1"></path></marker><marker id="SvgjsMarker1881" markerWidth="14" markerHeight="10" refX="10" refY="5" viewBox="0 0 14 10" orient="auto" markerUnits="userSpaceOnUse" stroke-dasharray="0,0"><path id="SvgjsPath1882" d="M0,0 L14,5 L0,10 L0,0" fill="#43aa8b" stroke="#43aa8b" stroke-width="1"></path></marker><marker id="SvgjsMarker1885" markerWidth="14" markerHeight="10" refX="10" refY="5" viewBox="0 0 14 10" orient="auto" markerUnits="userSpaceOnUse" stroke-dasharray="0,0"><path id="SvgjsPath1886" d="M0,0 L14,5 L0,10 L0,0" fill="#43aa8b" stroke="#43aa8b" stroke-width="1"></path></marker><marker id="SvgjsMarker1889" markerWidth="14" markerHeight="10" refX="10" refY="5" viewBox="0 0 14 10" orient="auto" markerUnits="userSpaceOnUse" stroke-dasharray="0,0"><path id="SvgjsPath1890" d="M0,0 L14,5 L0,10 L0,0" fill="#43aa8b" stroke="#43aa8b" stroke-width="1"></path></marker><marker id="SvgjsMarker1893" markerWidth="14" markerHeight="10" refX="10" refY="5" viewBox="0 0 14 10" orient="auto" markerUnits="userSpaceOnUse" stroke-dasharray="0,0"><path id="SvgjsPath1894" d="M0,0 L14,5 L0,10 L0,0" fill="#43aa8b" stroke="#43aa8b" stroke-width="1"></path></marker><marker id="SvgjsMarker1897" markerWidth="14" markerHeight="10" refX="10" refY="5" viewBox="0 0 14 10" orient="auto" markerUnits="userSpaceOnUse" stroke-dasharray="0,0"><path id="SvgjsPath1898" d="M0,0 L14,5 L0,10 L0,0" fill="#43aa8b" stroke="#43aa8b" stroke-width="1"></path></marker><marker id="SvgjsMarker1901" markerWidth="14" markerHeight="10" refX="10" refY="5" viewBox="0 0 14 10" orient="auto" markerUnits="userSpaceOnUse" stroke-dasharray="0,0"><path id="SvgjsPath1902" d="M0,0 L14,5 L0,10 L0,0" fill="#43aa8b" stroke="#43aa8b" stroke-width="1"></path></marker><marker id="SvgjsMarker1905" markerWidth="14" markerHeight="10" refX="10" refY="5" viewBox="0 0 14 10" orient="auto" markerUnits="userSpaceOnUse" stroke-dasharray="0,0"><path id="SvgjsPath1906" d="M0,0 L14,5 L0,10 L0,0" fill="#f8961e" stroke="#f8961e" stroke-width="1"></path></marker><marker id="SvgjsMarker1909" markerWidth="14" markerHeight="10" refX="10" refY="5" viewBox="0 0 14 10" orient="auto" markerUnits="userSpaceOnUse" stroke-dasharray="0,0"><path id="SvgjsPath1910" d="M0,0 L14,5 L0,10 L0,0" fill="#43aa8b" stroke="#43aa8b" stroke-width="1"></path></marker><marker id="SvgjsMarker1913" markerWidth="14" markerHeight="10" refX="10" refY="5" viewBox="0 0 14 10" orient="auto" markerUnits="userSpaceOnUse" stroke-dasharray="0,0"><path id="SvgjsPath1914" d="M0,0 L14,5 L0,10 L0,0" fill="#43aa8b" stroke="#43aa8b" stroke-width="1"></path></marker><marker id="SvgjsMarker1917" markerWidth="14" markerHeight="10" refX="10" refY="5" viewBox="0 0 14 10" orient="auto" markerUnits="userSpaceOnUse" stroke-dasharray="0,0"><path id="SvgjsPath1918" d="M0,0 L14,5 L0,10 L0,0" fill="#43aa8b" stroke="#43aa8b" stroke-width="1"></path></marker><marker id="SvgjsMarker1921" markerWidth="14" markerHeight="10" refX="10" refY="5" viewBox="0 0 14 10" orient="auto" markerUnits="userSpaceOnUse" stroke-dasharray="0,0"><path id="SvgjsPath1922" d="M0,0 L14,5 L0,10 L0,0" fill="#f8961e" stroke="#f8961e" stroke-width="1"></path></marker><marker id="SvgjsMarker1925" markerWidth="14" markerHeight="10" refX="10" refY="5" viewBox="0 0 14 10" orient="auto" markerUnits="userSpaceOnUse" stroke-dasharray="0,0"><path id="SvgjsPath1926" d="M0,0 L14,5 L0,10 L0,0" fill="#f8961e" stroke="#f8961e" stroke-width="1"></path></marker><marker id="SvgjsMarker1937" markerWidth="14" markerHeight="10" refX="10" refY="5" viewBox="0 0 14 10" orient="auto" markerUnits="userSpaceOnUse" stroke-dasharray="0,0"><path id="SvgjsPath1938" d="M0,0 L14,5 L0,10 L0,0" fill="#f8961e" stroke="#f8961e" stroke-width="1"></path></marker><marker id="SvgjsMarker1941" markerWidth="14" markerHeight="10" refX="10" refY="5" viewBox="0 0 14 10" orient="auto" markerUnits="userSpaceOnUse" stroke-dasharray="0,0"><path id="SvgjsPath1942" d="M0,0 L14,5 L0,10 L0,0" fill="#90be6d" stroke="#90be6d" stroke-width="1"></path></marker><marker id="SvgjsMarker1945" markerWidth="14" markerHeight="10" refX="10" refY="5" viewBox="0 0 14 10" orient="auto" markerUnits="userSpaceOnUse" stroke-dasharray="0,0"><path id="SvgjsPath1946" d="M0,0 L14,5 L0,10 L0,0" fill="#90be6d" stroke="#90be6d" stroke-width="1"></path></marker><marker id="SvgjsMarker1949" markerWidth="14" markerHeight="10" refX="10" refY="5" viewBox="0 0 14 10" orient="auto" markerUnits="userSpaceOnUse" stroke-dasharray="0,0"><path id="SvgjsPath1950" d="M0,0 L14,5 L0,10 L0,0" fill="#90be6d" stroke="#90be6d" stroke-width="1"></path></marker><marker id="SvgjsMarker1953" markerWidth="14" markerHeight="10" refX="10" refY="5" viewBox="0 0 14 10" orient="auto" markerUnits="userSpaceOnUse" stroke-dasharray="0,0"><path id="SvgjsPath1954" d="M0,0 L14,5 L0,10 L0,0" fill="#90be6d" stroke="#90be6d" stroke-width="1"></path></marker><marker id="SvgjsMarker1957" markerWidth="14" markerHeight="10" refX="10" refY="5" viewBox="0 0 14 10" orient="auto" markerUnits="userSpaceOnUse" stroke-dasharray="0,0"><path id="SvgjsPath1958" d="M0,0 L14,5 L0,10 L0,0" fill="#90be6d" stroke="#90be6d" stroke-width="1"></path></marker><marker id="SvgjsMarker1961" markerWidth="14" markerHeight="10" refX="10" refY="5" viewBox="0 0 14 10" orient="auto" markerUnits="userSpaceOnUse" stroke-dasharray="0,0"><path id="SvgjsPath1962" d="M0,0 L14,5 L0,10 L0,0" fill="#90be6d" stroke="#90be6d" stroke-width="1"></path></marker><marker id="SvgjsMarker1965" markerWidth="14" markerHeight="10" refX="10" refY="5" viewBox="0 0 14 10" orient="auto" markerUnits="userSpaceOnUse" stroke-dasharray="0,0"><path id="SvgjsPath1966" d="M0,0 L14,5 L0,10 L0,0" fill="#90be6d" stroke="#90be6d" stroke-width="1"></path></marker><marker id="SvgjsMarker1969" markerWidth="14" markerHeight="10" refX="10" refY="5" viewBox="0 0 14 10" orient="auto" markerUnits="userSpaceOnUse" stroke-dasharray="0,0"><path id="SvgjsPath1970" d="M0,0 L14,5 L0,10 L0,0" fill="#90be6d" stroke="#90be6d" stroke-width="1"></path></marker><marker id="SvgjsMarker1973" markerWidth="14" markerHeight="10" refX="10" refY="5" viewBox="0 0 14 10" orient="auto" markerUnits="userSpaceOnUse" stroke-dasharray="0,0"><path id="SvgjsPath1974" d="M0,0 L14,5 L0,10 L0,0" fill="#90be6d" stroke="#90be6d" stroke-width="1"></path></marker><marker id="SvgjsMarker1977" markerWidth="14" markerHeight="10" refX="10" refY="5" viewBox="0 0 14 10" orient="auto" markerUnits="userSpaceOnUse" stroke-dasharray="0,0"><path id="SvgjsPath1978" d="M0,0 L14,5 L0,10 L0,0" fill="#f9c64f" stroke="#f9c64f" stroke-width="1"></path></marker><marker id="SvgjsMarker1981" markerWidth="14" markerHeight="10" refX="10" refY="5" viewBox="0 0 14 10" orient="auto" markerUnits="userSpaceOnUse" stroke-dasharray="0,0"><path id="SvgjsPath1982" d="M0,0 L14,5 L0,10 L0,0" fill="#f9c64f" stroke="#f9c64f" stroke-width="1"></path></marker><marker id="SvgjsMarker1985" markerWidth="14" markerHeight="10" refX="10" refY="5" viewBox="0 0 14 10" orient="auto" markerUnits="userSpaceOnUse" stroke-dasharray="0,0"><path id="SvgjsPath1986" d="M0,0 L14,5 L0,10 L0,0" fill="#f9c64f" stroke="#f9c64f" stroke-width="1"></path></marker><marker id="SvgjsMarker1989" markerWidth="14" markerHeight="10" refX="10" refY="5" viewBox="0 0 14 10" orient="auto" markerUnits="userSpaceOnUse" stroke-dasharray="0,0"><path id="SvgjsPath1990" d="M0,0 L14,5 L0,10 L0,0" fill="#f9c64f" stroke="#f9c64f" stroke-width="1"></path></marker><marker id="SvgjsMarker1993" markerWidth="14" markerHeight="10" refX="10" refY="5" viewBox="0 0 14 10" orient="auto" markerUnits="userSpaceOnUse" stroke-dasharray="0,0"><path id="SvgjsPath1994" d="M0,0 L14,5 L0,10 L0,0" fill="#f9c64f" stroke="#f9c64f" stroke-width="1"></path></marker><marker id="SvgjsMarker1997" markerWidth="14" markerHeight="10" refX="10" refY="5" viewBox="0 0 14 10" orient="auto" markerUnits="userSpaceOnUse" stroke-dasharray="0,0"><path id="SvgjsPath1998" d="M0,0 L14,5 L0,10 L0,0" fill="#f9c64f" stroke="#f9c64f" stroke-width="1"></path></marker><marker id="SvgjsMarker2001" markerWidth="14" markerHeight="10" refX="10" refY="5" viewBox="0 0 14 10" orient="auto" markerUnits="userSpaceOnUse" stroke-dasharray="0,0"><path id="SvgjsPath2002" d="M0,0 L14,5 L0,10 L0,0" fill="#f3722c" stroke="#f3722c" stroke-width="1"></path></marker><marker id="SvgjsMarker2005" markerWidth="14" markerHeight="10" refX="10" refY="5" viewBox="0 0 14 10" orient="auto" markerUnits="userSpaceOnUse" stroke-dasharray="0,0"><path id="SvgjsPath2006" d="M0,0 L14,5 L0,10 L0,0" fill="#f3722c" stroke="#f3722c" stroke-width="1"></path></marker><marker id="SvgjsMarker2009" markerWidth="14" markerHeight="10" refX="10" refY="5" viewBox="0 0 14 10" orient="auto" markerUnits="userSpaceOnUse" stroke-dasharray="0,0"><path id="SvgjsPath2010" d="M0,0 L14,5 L0,10 L0,0" fill="#f3722c" stroke="#f3722c" stroke-width="1"></path></marker><marker id="SvgjsMarker2013" markerWidth="14" markerHeight="10" refX="10" refY="5" viewBox="0 0 14 10" orient="auto" markerUnits="userSpaceOnUse" stroke-dasharray="0,0"><path id="SvgjsPath2014" d="M0,0 L14,5 L0,10 L0,0" fill="#f3722c" stroke="#f3722c" stroke-width="1"></path></marker><marker id="SvgjsMarker2017" markerWidth="14" markerHeight="10" refX="10" refY="5" viewBox="0 0 14 10" orient="auto" markerUnits="userSpaceOnUse" stroke-dasharray="0,0"><path id="SvgjsPath2018" d="M0,0 L14,5 L0,10 L0,0" fill="#f3722c" stroke="#f3722c" stroke-width="1"></path></marker><marker id="SvgjsMarker2021" markerWidth="14" markerHeight="10" refX="10" refY="5" viewBox="0 0 14 10" orient="auto" markerUnits="userSpaceOnUse" stroke-dasharray="0,0"><path id="SvgjsPath2022" d="M0,0 L14,5 L0,10 L0,0" fill="#f3722c" stroke="#f3722c" stroke-width="1"></path></marker><pattern id="SvgjsPattern2025" x="0" y="0" width="109" height="108" patternUnits="userSpaceOnUse"><image id="SvgjsImage2026" xlink:href="https://cdn.processon.com/61778e5307912943ddfb46a2?e=1635228772&amp;token=trhI0BY8QfVrIGn9nENop6JAc6l5nZuxhjQ62UfM:htK3tHdHh1nGdfenzf3OECjnpzM=" width="109" height="108" preserveAspectRatio="none" crossOrigin="anonymous" x="0" y="0"></image></pattern></defs><g id="SvgjsG1689" transform="translate(1191.328125,162)"><path id="SvgjsPath1690" d="M 0 0L 203 0L 203 100L 0 100Z" stroke="rgba(50,50,50,1)" stroke-width="2" fill-opacity="1" fill="#ffffff"></path><g id="SvgjsG1691"><text id="SvgjsText1692" font-family="微软雅黑" text-anchor="middle" font-size="14px" width="183px" fill="#323232" font-weight="400" align="middle" lineHeight="125%" anchor="middle" family="微软雅黑" size="14px" weight="400" font-style="" opacity="1" y="39.75" transform="rotate(0)"></text></g></g><g id="SvgjsG1693" transform="translate(93.328125,779)"><path id="SvgjsPath1694" d="M 0 0L 263 0L 263 50L 0 50Z" stroke="none" fill-opacity="1" fill="#43aa8b"></path><g id="SvgjsG1695"><text id="SvgjsText1696" font-family="微软雅黑" text-anchor="middle" font-size="14px" width="243px" fill="#323232" font-weight="400" align="middle" lineHeight="125%" anchor="middle" family="微软雅黑" size="14px" weight="400" font-style="" opacity="1" y="14.75" transform="rotate(0)"><tspan id="SvgjsTspan1697" dy="17" x="131.5"><tspan id="SvgjsTspan1698" style="text-decoration:;">mutableCollectionHandlers</tspan></tspan></text></g></g><g id="SvgjsG1699" transform="translate(412.08128545038704,779)"><path id="SvgjsPath1700" d="M 0 0L 249.49367909922594 0L 249.49367909922594 50L 0 50Z" stroke="none" fill-opacity="1" fill="#90be6d"></path><g id="SvgjsG1701"><text id="SvgjsText1702" font-family="微软雅黑" text-anchor="middle" font-size="14px" width="230px" fill="#323232" font-weight="400" align="middle" lineHeight="125%" anchor="middle" family="微软雅黑" size="14px" weight="400" font-style="" opacity="1" y="14.75" transform="rotate(0)"><tspan id="SvgjsTspan1703" dy="17" x="125"><tspan id="SvgjsTspan1704" style="text-decoration:;">shallowCollectionHandlers</tspan></tspan></text></g></g><g id="SvgjsG1705" transform="translate(721.828125,779)"><path id="SvgjsPath1706" d="M 0 0L 276 0L 276 50L 0 50Z" stroke="none" fill-opacity="1" fill="#f9c64f"></path><g id="SvgjsG1707"><text id="SvgjsText1708" font-family="微软雅黑" text-anchor="middle" font-size="14px" width="256px" fill="#323232" font-weight="400" align="middle" lineHeight="125%" anchor="middle" family="微软雅黑" size="14px" weight="400" font-style="" opacity="1" y="14.75" transform="rotate(0)"><tspan id="SvgjsTspan1709" dy="17" x="138"><tspan id="SvgjsTspan1710" style="text-decoration:;">readonlyCollectionHandlers</tspan></tspan></text></g></g><g id="SvgjsG1711" transform="translate(1058.828125,779)"><path id="SvgjsPath1712" d="M 0 0L 328 0L 328 50L 0 50Z" stroke="rgba(243,114,44,1)" stroke-width="2" fill-opacity="1" fill="#f3722c"></path><g id="SvgjsG1713"><text id="SvgjsText1714" font-family="微软雅黑" text-anchor="middle" font-size="14px" width="308px" fill="#323232" font-weight="400" align="middle" lineHeight="125%" anchor="middle" family="微软雅黑" size="14px" weight="400" font-style="" opacity="1" y="14.75" transform="rotate(0)"><tspan id="SvgjsTspan1715" dy="17" x="164"><tspan id="SvgjsTspan1716" style="text-decoration:;">shallowReadonlyCollectionHandlers</tspan></tspan></text></g></g><g id="SvgjsG1717" transform="translate(98.03883018266788,596.8365956887303)"><path id="SvgjsPath1718" d="M 0 0L 1288.7892948173321 0L 1288.7892948173321 76.82680862253918L 0 76.82680862253918Z" stroke="none" fill-opacity="1" fill="#4d908e"></path><g id="SvgjsG1719"><text id="SvgjsText1720" font-family="微软雅黑" text-anchor="middle" font-size="14px" width="1269px" fill="#323232" font-weight="400" align="middle" lineHeight="125%" anchor="middle" family="微软雅黑" size="14px" weight="400" font-style="" opacity="1" y="28.163404311269588" transform="rotate(0)"><tspan id="SvgjsTspan1721" dy="17" x="644.5"><tspan id="SvgjsTspan1722" style="text-decoration:;">createInstrumentationGetter(isReadonly, shallow)用于创建getter函数</tspan></tspan></text></g></g><g id="SvgjsG1723" transform="translate(93.328125,448.5)"><path id="SvgjsPath1724" d="M 0 0L 263 0L 263 43L 0 43Z" stroke="none" fill-opacity="1" fill="#43aa8b"></path><g id="SvgjsG1725"><text id="SvgjsText1726" font-family="微软雅黑" text-anchor="middle" font-size="14px" width="243px" fill="#323232" font-weight="400" align="middle" lineHeight="125%" anchor="middle" family="微软雅黑" size="14px" weight="400" font-style="" opacity="1" y="11.25" transform="rotate(0)"><tspan id="SvgjsTspan1727" dy="17" x="131.5"><tspan id="SvgjsTspan1728" style="text-decoration:;">mutableInstrumentations</tspan></tspan></text></g></g><g id="SvgjsG1729" transform="translate(416.33675596757763,448.5)"><path id="SvgjsPath1730" d="M 0 0L 240.9827380648448 0L 240.9827380648448 43L 0 43Z" stroke="none" fill-opacity="1" fill="#90be6d"></path><g id="SvgjsG1731"><text id="SvgjsText1732" font-family="微软雅黑" text-anchor="middle" font-size="14px" width="221px" fill="#323232" font-weight="400" align="middle" lineHeight="125%" anchor="middle" family="微软雅黑" size="14px" weight="400" font-style="" opacity="1" y="11.25" transform="rotate(0)"><tspan id="SvgjsTspan1733" dy="17" x="120.5"><tspan id="SvgjsTspan1734" style="text-decoration:;">shallowInstrumentations</tspan></tspan></text></g></g><g id="SvgjsG1735" transform="translate(716.328125,448.5)"><path id="SvgjsPath1736" d="M 0 0L 287 0L 287 43L 0 43Z" stroke="none" fill-opacity="1" fill="#f9c64f"></path><g id="SvgjsG1737"><text id="SvgjsText1738" font-family="微软雅黑" text-anchor="middle" font-size="14px" width="267px" fill="#323232" font-weight="400" align="middle" lineHeight="125%" anchor="middle" family="微软雅黑" size="14px" weight="400" font-style="" opacity="1" y="11.25" transform="rotate(0)"><tspan id="SvgjsTspan1739" dy="17" x="143.5"><tspan id="SvgjsTspan1740" style="text-decoration:;">readonlyInstrumentations</tspan></tspan></text></g></g><g id="SvgjsG1741" transform="translate(1058.828125,448.5)"><path id="SvgjsPath1742" d="M 0 0L 328 0L 328 43L 0 43Z" stroke="none" fill-opacity="1" fill="#f3722c"></path><g id="SvgjsG1743"><text id="SvgjsText1744" font-family="微软雅黑" text-anchor="middle" font-size="14px" width="308px" fill="#323232" font-weight="400" align="middle" lineHeight="125%" anchor="middle" family="微软雅黑" size="14px" weight="400" font-style="" opacity="1" y="11.25" transform="rotate(0)"><tspan id="SvgjsTspan1745" dy="17" x="164"><tspan id="SvgjsTspan1746" style="text-decoration:;">shallowReadonlyInstrumentations</tspan></tspan></text></g></g><g id="SvgjsG1747" transform="translate(93.328125,221.5)"><path id="SvgjsPath1748" d="M 0 0L 60 0L 60 43L 0 43Z" stroke="none" fill-opacity="1" fill="#f94144"></path><g id="SvgjsG1749"><text id="SvgjsText1750" font-family="微软雅黑" text-anchor="middle" font-size="14px" width="40px" fill="#323232" font-weight="400" align="middle" lineHeight="125%" anchor="middle" family="微软雅黑" size="14px" weight="400" font-style="" opacity="1" y="11.25" transform="rotate(0)"><tspan id="SvgjsTspan1751" dy="17" x="30"><tspan id="SvgjsTspan1752" style="text-decoration:;">get</tspan></tspan></text></g></g><g id="SvgjsG1753" transform="translate(198.9174107142857,221.5)"><path id="SvgjsPath1754" d="M 0 0L 87.42857142857144 0L 87.42857142857144 43L 0 43Z" stroke="none" fill-opacity="1" fill="#f94144"></path><g id="SvgjsG1755"><text id="SvgjsText1756" font-family="微软雅黑" text-anchor="middle" font-size="14px" width="68px" fill="#323232" font-weight="400" align="middle" lineHeight="125%" anchor="middle" family="微软雅黑" size="14px" weight="400" font-style="" opacity="1" y="11.25" transform="rotate(0)"><tspan id="SvgjsTspan1757" dy="17" x="44"><tspan id="SvgjsTspan1758" style="text-decoration:;">get: size()</tspan></tspan></text></g></g><g id="SvgjsG1759" transform="translate(649.328125,221.5)"><path id="SvgjsPath1760" d="M 0 0L 75 0L 75 43L 0 43Z" stroke="none" fill-opacity="1" fill="#f94144"></path><g id="SvgjsG1761"><text id="SvgjsText1762" font-family="微软雅黑" text-anchor="middle" font-size="14px" width="55px" fill="#323232" font-weight="400" align="middle" lineHeight="125%" anchor="middle" family="微软雅黑" size="14px" weight="400" font-style="" opacity="1" y="11.25" transform="rotate(0)"><tspan id="SvgjsTspan1763" dy="17" x="37.5"><tspan id="SvgjsTspan1764" style="text-decoration:;">delete</tspan></tspan></text></g></g><g id="SvgjsG1765" transform="translate(332.0959821428571,221.5)"><path id="SvgjsPath1766" d="M 0 0L 60 0L 60 43L 0 43Z" stroke="none" fill-opacity="1" fill="#f94144"></path><g id="SvgjsG1767"><text id="SvgjsText1768" font-family="微软雅黑" text-anchor="middle" font-size="14px" width="40px" fill="#323232" font-weight="400" align="middle" lineHeight="125%" anchor="middle" family="微软雅黑" size="14px" weight="400" font-style="" opacity="1" y="11.25" transform="rotate(0)"><tspan id="SvgjsTspan1769" dy="17" x="30"><tspan id="SvgjsTspan1770" style="text-decoration:;">has</tspan></tspan></text></g></g><g id="SvgjsG1771" transform="translate(543.7566964285714,221.5)"><path id="SvgjsPath1772" d="M 0 0L 60 0L 60 43L 0 43Z" stroke="none" fill-opacity="1" fill="#f94144"></path><g id="SvgjsG1773"><text id="SvgjsText1774" font-family="微软雅黑" text-anchor="middle" font-size="14px" width="40px" fill="#323232" font-weight="400" align="middle" lineHeight="125%" anchor="middle" family="微软雅黑" size="14px" weight="400" font-style="" opacity="1" y="11.25" transform="rotate(0)"><tspan id="SvgjsTspan1775" dy="17" x="30"><tspan id="SvgjsTspan1776" style="text-decoration:;">set</tspan></tspan></text></g></g><g id="SvgjsG1777" transform="translate(437.8459821428571,221.5)"><path id="SvgjsPath1778" d="M 0 0L 60 0L 60 43L 0 43Z" stroke="none" fill-opacity="1" fill="#f94144"></path><g id="SvgjsG1779"><text id="SvgjsText1780" font-family="微软雅黑" text-anchor="middle" font-size="14px" width="40px" fill="#323232" font-weight="400" align="middle" lineHeight="125%" anchor="middle" family="微软雅黑" size="14px" weight="400" font-style="" opacity="1" y="11.25" transform="rotate(0)"><tspan id="SvgjsTspan1781" dy="17" x="30"><tspan id="SvgjsTspan1782" style="text-decoration:;">add</tspan></tspan></text></g></g><g id="SvgjsG1783" transform="translate(769.8995535714286,221.5)"><path id="SvgjsPath1784" d="M 0 0L 60 0L 60 43L 0 43Z" stroke="none" fill-opacity="1" fill="#f94144"></path><g id="SvgjsG1785"><text id="SvgjsText1786" font-family="微软雅黑" text-anchor="middle" font-size="14px" width="40px" fill="#323232" font-weight="400" align="middle" lineHeight="125%" anchor="middle" family="微软雅黑" size="14px" weight="400" font-style="" opacity="1" y="11.25" transform="rotate(0)"><tspan id="SvgjsTspan1787" dy="17" x="30"><tspan id="SvgjsTspan1788" style="text-decoration:;">clear</tspan></tspan></text></g></g><g id="SvgjsG1789" transform="translate(632.328125,82.5)"><path id="SvgjsPath1790" d="M 0 0L 109 0L 109 43L 0 43Z" stroke="none" fill-opacity="1" fill="#f8961e"></path><g id="SvgjsG1791"><text id="SvgjsText1792" font-family="微软雅黑" text-anchor="middle" font-size="14px" width="89px" fill="#323232" font-weight="400" align="middle" lineHeight="125%" anchor="middle" family="微软雅黑" size="14px" weight="400" font-style="" opacity="1" y="11.25" transform="rotate(0)"><tspan id="SvgjsTspan1793" dy="17" x="54.5"><tspan id="SvgjsTspan1794" style="text-decoration:;">deleteEntry</tspan></tspan></text></g></g><g id="SvgjsG1795" transform="translate(774.828125,82.5)"><path id="SvgjsPath1796" d="M 0 0L 276 0L 276 43L 0 43Z" stroke="none" fill-opacity="1" fill="#f8961e"></path><g id="SvgjsG1797"><text id="SvgjsText1798" font-family="微软雅黑" text-anchor="middle" font-size="14px" width="256px" fill="#323232" font-weight="400" align="middle" lineHeight="125%" anchor="middle" family="微软雅黑" size="14px" weight="400" font-style="" opacity="1" y="11.25" transform="rotate(0)"><tspan id="SvgjsTspan1799" dy="17" x="138"><tspan id="SvgjsTspan1800" style="text-decoration:;">createForEach(isReadonly, isShallow)</tspan></tspan></text></g></g><g id="SvgjsG1801" transform="translate(875.328125,221.5)"><path id="SvgjsPath1802" d="M 0 0L 75 0L 75 43L 0 43Z" stroke="none" fill-opacity="1" fill="#f94144"></path><g id="SvgjsG1803"><text id="SvgjsText1804" font-family="微软雅黑" text-anchor="middle" font-size="14px" width="55px" fill="#323232" font-weight="400" align="middle" lineHeight="125%" anchor="middle" family="微软雅黑" size="14px" weight="400" font-style="" opacity="1" y="11.25" transform="rotate(0)"><tspan id="SvgjsTspan1805" dy="17" x="37.5"><tspan id="SvgjsTspan1806" style="text-decoration:;">forEach</tspan></tspan></text></g></g><g id="SvgjsG1807" transform="translate(25.005801295666913,82.5)"><path id="SvgjsPath1808" d="M 0 0L 287 0L 287 43L 0 43Z" stroke="none" fill-opacity="1" fill="#f8961e"></path><g id="SvgjsG1809"><text id="SvgjsText1810" font-family="微软雅黑" text-anchor="middle" font-size="14px" width="267px" fill="#323232" font-weight="400" align="middle" lineHeight="125%" anchor="middle" family="微软雅黑" size="14px" weight="400" font-style="" opacity="1" y="11.25" transform="rotate(0)"><tspan id="SvgjsTspan1811" dy="17" x="143.5"><tspan id="SvgjsTspan1812" style="text-decoration:;">get( target, key, isReadonly,  isShallow)</tspan></tspan></text></g></g><g id="SvgjsG1813" transform="translate(1262.828125,221.5)"><path id="SvgjsPath1814" d="M 0 0L 60 0L 60 43L 0 43Z" stroke="none" fill-opacity="1" fill="#f94144"></path><g id="SvgjsG1815"><text id="SvgjsText1816" font-family="微软雅黑" text-anchor="middle" font-size="14px" width="40px" fill="#323232" font-weight="400" align="middle" lineHeight="125%" anchor="middle" family="微软雅黑" size="14px" weight="400" font-style="" opacity="1" y="2.75" transform="rotate(0)"><tspan id="SvgjsTspan1817" dy="17" x="30"><tspan id="SvgjsTspan1818" style="text-decoration:;">value</tspan></tspan><tspan id="SvgjsTspan1819" dy="17" x="30"><tspan id="SvgjsTspan1820" style="text-decoration:;">s</tspan></tspan></text></g></g><g id="SvgjsG1821" transform="translate(1191.328125,221.5)"><path id="SvgjsPath1822" d="M 0 0L 75 0L 75 43L 0 43Z" stroke="none" fill-opacity="1" fill="#f94144"></path><g id="SvgjsG1823"><text id="SvgjsText1824" font-family="微软雅黑" text-anchor="middle" font-size="14px" width="55px" fill="#323232" font-weight="400" align="middle" lineHeight="125%" anchor="middle" family="微软雅黑" size="14px" weight="400" font-style="" opacity="1" y="11.25" transform="rotate(0)"><tspan id="SvgjsTspan1825" dy="17" x="37.5"><tspan id="SvgjsTspan1826" style="text-decoration:;">keys</tspan></tspan></text></g></g><g id="SvgjsG1827" transform="translate(1319.3732154235952,221.5)"><path id="SvgjsPath1828" d="M 0 0L 75 0L 75 43L 0 43Z" stroke="none" fill-opacity="1" fill="#f94144"></path><g id="SvgjsG1829"><text id="SvgjsText1830" font-family="微软雅黑" text-anchor="middle" font-size="14px" width="55px" fill="#323232" font-weight="400" align="middle" lineHeight="125%" anchor="middle" family="微软雅黑" size="14px" weight="400" font-style="" opacity="1" y="11.25" transform="rotate(0)"><tspan id="SvgjsTspan1831" dy="17" x="37.5"><tspan id="SvgjsTspan1832" style="text-decoration:;">entries</tspan></tspan></text></g></g><g id="SvgjsG1833" transform="translate(1191.328125,162.2790697674418)"><path id="SvgjsPath1834" d="M 0 0L 203 0L 203 58.7209302325582L 0 58.7209302325582Z" stroke="none" fill-opacity="1" fill="#f94144"></path><g id="SvgjsG1835"><text id="SvgjsText1836" font-family="微软雅黑" text-anchor="middle" font-size="14px" width="183px" fill="#323232" font-weight="400" align="middle" lineHeight="125%" anchor="middle" family="微软雅黑" size="14px" weight="400" font-style="" opacity="1" y="19.1104651162791" transform="rotate(0)"><tspan id="SvgjsTspan1837" dy="17" x="101.5"><tspan id="SvgjsTspan1838" style="text-decoration:;">iteratorMethods</tspan></tspan></text></g></g><g id="SvgjsG1839" transform="translate(1109.328125,82.5)"><path id="SvgjsPath1840" d="M 0 0L 367 0L 367 43L 0 43Z" stroke="none" fill-opacity="1" fill="#f8961e"></path><g id="SvgjsG1841"><text id="SvgjsText1842" font-family="微软雅黑" text-anchor="middle" font-size="14px" width="347px" fill="#323232" font-weight="400" align="middle" lineHeight="125%" anchor="middle" family="微软雅黑" size="14px" weight="400" font-style="" opacity="1" y="2.75" transform="rotate(0)"><tspan id="SvgjsTspan1843" dy="17" x="183.5"><tspan id="SvgjsTspan1844" style="text-decoration:;">createIterableMethod(method, isReadonly, </tspan></tspan><tspan id="SvgjsTspan1845" dy="17" x="183.5"><tspan id="SvgjsTspan1846" style="text-decoration:;">isShallow )</tspan></tspan></text></g></g><g id="SvgjsG1847"><path id="SvgjsPath1848" d="M211.828125 671.9458261453783L211.828125 725.4729130726892L211.828125 725.4729130726892L211.828125 776.4000000000001" stroke="#43aa8b" stroke-width="2" fill="none" marker-end="url(#SvgjsMarker1849)"></path></g><g id="SvgjsG1851"><path id="SvgjsPath1852" d="M537.5493487860662 671.9458261453783L537.5493487860662 725.4729130726892L537.5493487860662 725.4729130726892L537.5493487860662 776.4000000000001" stroke="#90be6d" stroke-width="2" fill="none" marker-end="url(#SvgjsMarker1853)"></path></g><g id="SvgjsG1855"><path id="SvgjsPath1856" d="M859.828125 673.6634043112695L859.828125 726.3317021556347L859.828125 726.3317021556347L859.828125 776.4000000000001" stroke="#f9c64f" stroke-width="2" fill="none" marker-end="url(#SvgjsMarker1857)"></path></g><g id="SvgjsG1859"><path id="SvgjsPath1860" d="M1221.1725014954259 670.9458261453783L1221.1725014954259 724.9729130726892L1221.1725014954259 724.9729130726892L1221.1725014954259 775.4000000000001" stroke="#f3722c" stroke-width="2" fill="none" marker-end="url(#SvgjsMarker1861)"></path></g><g id="SvgjsG1863"><path id="SvgjsPath1864" d="M1218.6058051192454 491.5L1218.6058051192454 544.25L1218.6058051192454 544.25L1218.6058051192454 594.4" stroke="#f3722c" stroke-width="2" fill="none" marker-end="url(#SvgjsMarker1865)"></path></g><g id="SvgjsG1867"><path id="SvgjsPath1868" d="M860.8281250000002 491.5L860.8281250000002 544.1682978443652L860.8281250000002 544.1682978443652L860.8281250000002 594.2365956887303" stroke="#f9c64f" stroke-width="2" fill="none" marker-end="url(#SvgjsMarker1869)"></path></g><g id="SvgjsG1871"><path id="SvgjsPath1872" d="M533.8281250000002 491.5L533.8281250000002 544.1682978443652L533.8281250000002 544.1682978443652L533.8281250000002 594.2365956887303" stroke="#90be6d" stroke-width="2" fill="none" marker-end="url(#SvgjsMarker1873)"></path></g><g id="SvgjsG1875"><path id="SvgjsPath1876" d="M223.82812500000026 491.5L223.82812500000026 544.1682978443652L223.82812500000026 544.1682978443652L223.82812500000026 594.2365956887303" stroke="#43aa8b" stroke-width="2" fill="none" marker-end="url(#SvgjsMarker1877)"></path></g><g id="SvgjsG1879"><path id="SvgjsPath1880" d="M123.328125 264.5C 123.328125 348.06826611120505 224.82812500000003 364.18173388879495 224.64863401083872 445.90620297925807" stroke="#43aa8b" stroke-width="2" fill="none" marker-end="url(#SvgjsMarker1881)"></path></g><g id="SvgjsG1883"><path id="SvgjsPath1884" d="M242.63169642857144 264.5C 242.63169642857144 337.9923379541482 224.82812500000003 374.2576620458518 224.8681131297039 445.900307527902" stroke="#43aa8b" stroke-width="2" fill="none" marker-end="url(#SvgjsMarker1885)"></path></g><g id="SvgjsG1887"><path id="SvgjsPath1888" d="M362.0959821428571 264.5C 358.828125 345 257.828125 268 225.38056564627882 445.95936832021266" stroke="#43aa8b" stroke-width="2" fill="none" marker-end="url(#SvgjsMarker1889)"></path></g><g id="SvgjsG1891"><path id="SvgjsPath1892" d="M467.8459821428571 264.5C 412.828125 351 295.828125 220 221.9878560283205 446.0500324894806" stroke="#43aa8b" stroke-width="2" fill="none" marker-end="url(#SvgjsMarker1893)"></path></g><g id="SvgjsG1895"><path id="SvgjsPath1896" d="M573.7566964285714 264.5C 523.828125 372 291.828125 187 221.87367913345423 446.01241646436165" stroke="#43aa8b" stroke-width="2" fill="none" marker-end="url(#SvgjsMarker1897)"></path></g><g id="SvgjsG1899"><path id="SvgjsPath1900" d="M686.828125 264.5C 598.828125 411 312.828125 146 221.93906760116639 446.0332420225485" stroke="#43aa8b" stroke-width="2" fill="none" marker-end="url(#SvgjsMarker1901)"></path></g><g id="SvgjsG1903"><path id="SvgjsPath1904" d="M686.828125 125.5L686.828125 173.125L686.828125 173.125L686.828125 218.89999999999998" stroke="#f8961e" stroke-width="2" fill="none" marker-end="url(#SvgjsMarker1905)"></path></g><g id="SvgjsG1907"><path id="SvgjsPath1908" d="M799.8995535714286 264.5C 783.828125 401 298.828125 128 221.81207106694063 445.9945140907565" stroke="#43aa8b" stroke-width="2" fill="none" marker-end="url(#SvgjsMarker1909)"></path></g><g id="SvgjsG1911"><path id="SvgjsPath1912" d="M912.828125 264.5C 805.828125 436 265.828125 135 225.24549996639448 445.9337190065336" stroke="#43aa8b" stroke-width="2" fill="none" marker-end="url(#SvgjsMarker1913)"></path></g><g id="SvgjsG1915"><path id="SvgjsPath1916" d="M1292.828125 264.5C 1173.828125 614 266.828125 25 225.15039584850757 445.92005009734646" stroke="#43aa8b" stroke-width="2" fill="none" marker-end="url(#SvgjsMarker1917)"></path></g><g id="SvgjsG1919"><path id="SvgjsPath1920" d="M912.828125 125.5L912.828125 173.125L912.828125 173.125L912.828125 218.89999999999998" stroke="#f8961e" stroke-width="2" fill="none" marker-end="url(#SvgjsMarker1921)"></path></g><g id="SvgjsG1923"><path id="SvgjsPath1924" d="M168.5058012956669 125.5L168.5058012956669 173.125L123.328125 173.125L123.328125 218.89999999999998" stroke="#f8961e" stroke-width="2" fill="none" marker-end="url(#SvgjsMarker1925)"></path></g><g id="SvgjsG1927" transform="translate(997.7566964285714,221.5)"><path id="SvgjsPath1928" d="M 0 0L 171 0L 171 43L 0 43Z" stroke="none" fill-opacity="1" fill="#f94144"></path><g id="SvgjsG1929"><text id="SvgjsText1930" font-family="微软雅黑" text-anchor="middle" font-size="14px" width="151px" fill="#323232" font-weight="400" align="middle" lineHeight="125%" anchor="middle" family="微软雅黑" size="14px" weight="400" font-style="" opacity="1" y="2.75" transform="rotate(0)"><tspan id="SvgjsTspan1931" dy="17" x="85.5"><tspan id="SvgjsTspan1932" style="text-decoration:;">createReadonlyMetho</tspan></tspan><tspan id="SvgjsTspan1933" dy="17" x="85.5"><tspan id="SvgjsTspan1934" style="text-decoration:;">d</tspan></tspan></text></g></g><g id="SvgjsG1935"><path id="SvgjsPath1936" d="M1292.828125 125.5C 1292.828125 139.31163852973015 1292.783034576405 146.96743123771165 1292.8241251070106 159.6790728442021" stroke="#f8961e" stroke-width="2" fill="none" marker-end="url(#SvgjsMarker1937)"></path></g><g id="SvgjsG1939"><path id="SvgjsPath1940" d="M123.328125 264.5C 382.828125 295 536.3630288485111 267.5114282957518 536.3028514807482 445.90069650013527" stroke="#90be6d" stroke-width="2" fill="none" marker-end="url(#SvgjsMarker1941)"></path></g><g id="SvgjsG1943"><path id="SvgjsPath1944" d="M242.63169642857144 264.5C 284.828125 384 525.828125 181 536.1739276063761 445.9068859029686" stroke="#90be6d" stroke-width="2" fill="none" marker-end="url(#SvgjsMarker1945)"></path></g><g id="SvgjsG1947"><path id="SvgjsPath1948" d="M362.0959821428571 264.5C 456.828125 257 536.363028848511 346.9113659369234 536.2673565904311 445.9017608233587" stroke="#90be6d" stroke-width="2" fill="none" marker-end="url(#SvgjsMarker1949)"></path></g><g id="SvgjsG1951"><path id="SvgjsPath1952" d="M467.8459821428571 264.5C 502.828125 340 536.363028848511 369.6815775958288 536.2942426835351 445.90091007013837" stroke="#90be6d" stroke-width="2" fill="none" marker-end="url(#SvgjsMarker1953)"></path></g><g id="SvgjsG1955"><path id="SvgjsPath1956" d="M573.7566964285714 264.5C 545.828125 330 536.363028848511 373.10148661933647 536.3848872224663 445.90009188402973" stroke="#90be6d" stroke-width="2" fill="none" marker-end="url(#SvgjsMarker1957)"></path></g><g id="SvgjsG1959"><path id="SvgjsPath1960" d="M686.828125 264.5C 686.828125 359.0577605737344 538.828125 269 536.5123180482229 445.90428955103823" stroke="#90be6d" stroke-width="2" fill="none" marker-end="url(#SvgjsMarker1961)"></path></g><g id="SvgjsG1963"><path id="SvgjsPath1964" d="M799.8995535714286 264.5C 799.8995535714286 392.4879119687953 542.828125 219 536.5512023623273 445.9068184157877" stroke="#90be6d" stroke-width="2" fill="none" marker-end="url(#SvgjsMarker1965)"></path></g><g id="SvgjsG1967"><path id="SvgjsPath1968" d="M912.828125 264.5C 913.828125 431.8511416083319 529.828125 192 536.4105884542183 445.9004350202572" stroke="#90be6d" stroke-width="2" fill="none" marker-end="url(#SvgjsMarker1969)"></path></g><g id="SvgjsG1971"><path id="SvgjsPath1972" d="M1292.828125 264.5C 1118.828125 537 555.828125 122 536.5912173476627 445.91003281703127" stroke="#90be6d" stroke-width="2" fill="none" marker-end="url(#SvgjsMarker1973)"></path></g><g id="SvgjsG1975"><path id="SvgjsPath1976" d="M123.328125 264.5C 123.32812500000006 567.477460069056 751.828125 294 858.2218829462843 446.45549848009966" stroke="#f9c64f" stroke-width="2" fill="none" marker-end="url(#SvgjsMarker1977)"></path></g><g id="SvgjsG1979"><path id="SvgjsPath1980" d="M242.63169642857144 264.5C 191.828125 550 741.828125 307 858.0506988160834 446.60243414851357" stroke="#f9c64f" stroke-width="2" fill="none" marker-end="url(#SvgjsMarker1981)"></path></g><g id="SvgjsG1983"><path id="SvgjsPath1984" d="M362.0959821428571 264.5C 357.828125 507 737.828125 314 857.9860400432732 446.66513678651484" stroke="#f9c64f" stroke-width="2" fill="none" marker-end="url(#SvgjsMarker1985)"></path></g><g id="SvgjsG1987"><path id="SvgjsPath1988" d="M1083.2566964285716 264.5C 1083.2566964285716 379.7175051249184 893.828125 371 861.0697552333174 446.21562823434715" stroke="#f9c64f" stroke-width="2" fill="none" marker-end="url(#SvgjsMarker1989)"></path></g><g id="SvgjsG1991"><path id="SvgjsPath1992" d="M912.828125 264.5C 913.828125 340.74201257273376 859.828125 371.50798742726624 859.9415754962748 445.90247637452615" stroke="#f9c64f" stroke-width="2" fill="none" marker-end="url(#SvgjsMarker1993)"></path></g><g id="SvgjsG1995"><path id="SvgjsPath1996" d="M1292.828125 264.5C 1292.828125 452.0567975406093 896.828125 329 860.8050779766055 446.0905264306281" stroke="#f9c64f" stroke-width="2" fill="none" marker-end="url(#SvgjsMarker1997)"></path></g><g id="SvgjsG1999"><path id="SvgjsPath2000" d="M1083.2566964285716 264.5C 1160.828125 324 1222.828125 355.88229441540295 1222.7358533910894 445.9016378331362" stroke="#f3722c" stroke-width="2" fill="none" marker-end="url(#SvgjsMarker2001)"></path></g><g id="SvgjsG2003"><path id="SvgjsPath2004" d="M1292.828125 264.5C 1331.828125 374 1252.828125 424 1224.8622379786518 446.88062222132055" stroke="#f3722c" stroke-width="2" fill="none" marker-end="url(#SvgjsMarker2005)"></path></g><g id="SvgjsG2007"><path id="SvgjsPath2008" d="M123.328125 264.5C 437.828125 662 1188.828125 38 1222.558334318903 445.9140353853169" stroke="#f3722c" stroke-width="2" fill="none" marker-end="url(#SvgjsMarker2009)"></path></g><g id="SvgjsG2011"><path id="SvgjsPath2012" d="M242.63169642857144 264.5C 283.828125 655 1222.8281250000002 49.517774614620976 1222.7528447039654 445.9010900598464" stroke="#f3722c" stroke-width="2" fill="none" marker-end="url(#SvgjsMarker2013)"></path></g><g id="SvgjsG2015"><path id="SvgjsPath2016" d="M362.0959821428571 264.5C 462.828125 613 1194.828125 62 1222.568510378929 445.9129939604775" stroke="#f3722c" stroke-width="2" fill="none" marker-end="url(#SvgjsMarker2017)"></path></g><g id="SvgjsG2019"><path id="SvgjsPath2020" d="M912.828125 264.5C 934.828125 377 1195.828125 199 1222.4500849659075 445.92763032737844" stroke="#f3722c" stroke-width="2" fill="none" marker-end="url(#SvgjsMarker2021)"></path></g><g id="SvgjsG2023" transform="translate(423.828125,76)"><path id="SvgjsPath2024" d="M 0 0L 109 0L 109 108L 0 108Z" stroke="none" fill="url(#SvgjsPattern2025)"></path></g></svg>